<svg width="1083" height="2402" viewBox="0 0 1083 2402" fill="none" xmlns="http://www.w3.org/2000/svg" xmlns:xlink="http://www.w3.org/1999/xlink">
<style>
    .can_interact:hover {
  fill: red;
  cursor: pointer;
  fill-opacity: 0.9;
  transition-property: all;
  transition-timing-function: cubic-bezier(0.4, 0, 0.2, 1);
  transition-duration: 150ms;
}
  </style>
<g id="anatomy_back">
<rect id="body_back" x="35" y="15" width="1013" height="2371" fill="url(#pattern0)"/>
<path class="can_interact" id="head_back" d="M455.257 49.6002L481 36L499.702 27.3682C500.228 27.1256 500.8 27 501.379 27H531.697C532.227 27 532.752 27.1055 533.241 27.3102L553.331 35.7198C553.773 35.9051 554.179 36.1685 554.528 36.4975L611.44 90.0896C612.904 91.4681 613.117 93.7191 611.938 95.3477L603.5 107L577.535 143.253C577.183 143.745 576.947 144.309 576.844 144.905L566.571 204.678C566.241 206.597 564.577 208 562.629 208H432.313C430.625 208 429.119 206.941 428.549 205.353L406.736 144.656C406.58 144.222 406.5 143.764 406.5 143.303V127.02C406.5 126.675 406.545 126.331 406.633 125.997L415.145 93.8429C415.375 92.9731 415.892 92.2064 416.611 91.6665L429.075 82.3188C429.357 82.1072 429.61 81.8592 429.827 81.5813L453.973 50.6744C454.32 50.2298 454.758 49.8638 455.257 49.6002Z" fill="#DF977D" fill-opacity="0.2" stroke="#CCCCCC" stroke-opacity="0.3"/>
<path class="can_interact" id="neck_back" d="M438.219 235.79L430.169 215.473C429.128 212.848 431.063 210 433.887 210H562.515C564.513 210 566.204 211.473 566.478 213.452L577 289.5V318.833C577 320.448 577.971 321.905 579.462 322.526L636.084 346.118C636.685 346.369 637.217 346.763 637.631 347.266L655.103 368.455C657.255 371.064 655.399 375 652.017 375H352.42C348.637 375 346.968 370.235 349.924 367.874L407.478 321.917C407.824 321.641 408.121 321.31 408.358 320.936L437.876 274.482C438.284 273.841 438.5 273.096 438.5 272.337V237.264C438.5 236.759 438.405 236.259 438.219 235.79Z" fill="#DF977D" fill-opacity="0.2" stroke="#CCCCCC" stroke-opacity="0.3"/>
<path class="can_interact" id="back" d="M297.333 409.807L332.861 378.019C333.595 377.363 334.544 377 335.528 377H663.056C663.677 377 664.289 377.145 664.845 377.422L709.358 399.679C710.928 400.464 711.803 402.182 711.514 403.914L700.127 472.238C700.043 472.741 700.056 473.256 700.166 473.755L721.907 572.575C721.969 572.858 722 573.146 722 573.435V698.604C722 698.867 721.974 699.13 721.922 699.388L700.205 807.975C700.071 808.647 699.766 809.273 699.32 809.794L641.266 877.524C640.467 878.456 639.284 878.969 638.057 878.917L362.115 867.091C360.792 867.034 359.583 866.326 358.886 865.2L334.158 825.255C334.053 825.085 333.961 824.908 333.882 824.725L280.323 699.755C280.11 699.257 280 698.721 280 698.179V573.353C280 573.118 280.021 572.884 280.062 572.653L295.938 483.347C295.979 483.116 296 482.882 296 482.647V412.788C296 411.65 296.485 410.566 297.333 409.807Z" fill="#DF977D" fill-opacity="0.2" stroke="#CCCCCC" stroke-opacity="0.3"/>
<path class="can_interact" id="right_back_shoulder" d="M774.936 420.706L722.169 406.15C719.921 405.53 717.621 406.956 717.178 409.246L706.073 466.623C706.024 466.874 706 467.128 706 467.384V506.804C706 508.172 706.699 509.445 707.852 510.179L749.605 536.749C749.868 536.916 750.109 537.113 750.326 537.335L815.852 604.734C817.833 606.771 821.246 606.152 822.385 603.549L833.665 577.767C833.886 577.261 834 576.715 834 576.163V525.476C834 525.16 833.963 524.845 833.888 524.537L820.253 468.048C820.087 467.361 819.743 466.731 819.255 466.221L776.763 421.798C776.264 421.276 775.632 420.899 774.936 420.706Z" fill="#DF977D" fill-opacity="0.2" stroke="#CCCCCC" stroke-opacity="0.3"/>
<path class="can_interact" id="left_back_shoulder" d="M231.005 428.643L286.662 408.894C289.266 407.97 292 409.901 292 412.664V498.39C292 498.794 291.939 499.196 291.818 499.583L282.428 529.63C282.151 530.516 281.575 531.278 280.799 531.785L230.553 564.638C230.187 564.878 229.862 565.176 229.592 565.521L198.738 604.946C196.743 607.495 192.704 606.742 191.762 603.645L180.173 565.569C180.058 565.192 180 564.799 180 564.405V521.549C180 521.185 180.05 520.822 180.148 520.471L193.761 471.852C193.919 471.291 194.197 470.771 194.576 470.328L229.306 429.81C229.761 429.279 230.347 428.877 231.005 428.643Z" fill="#DF977D" fill-opacity="0.2" stroke="#CCCCCC" stroke-opacity="0.3"/>
<path class="can_interact" id="loin" d="M334 943V843.521C334 839.843 338.546 838.114 340.99 840.863L364.864 867.722C365.59 868.538 366.617 869.022 367.709 869.062L640.217 878.935C641.352 878.977 642.451 878.533 643.239 877.716L691.122 828.123C693.621 825.535 698 827.304 698 830.902V961V996.717C698 1000.36 693.516 1002.11 691.051 999.42L676 983L659.2 962.467C658.441 961.539 657.304 961 656.104 961H621.02C620.351 961 619.692 961.168 619.105 961.488L598.895 972.512C598.308 972.832 597.649 973 596.98 973H424.536C424.18 973 423.826 972.953 423.483 972.859L380.517 961.141C380.174 961.047 379.82 961 379.464 961H353.896C352.696 961 351.559 961.539 350.8 962.467L341.096 974.327C338.715 977.237 334 975.554 334 971.794V943Z" fill="#DF977D" fill-opacity="0.2" stroke="#CCCCCC" stroke-opacity="0.3"/>
<path class="can_interact" id="left_back_arm" d="M278.058 559.835L261.814 550.088C260.679 549.407 259.281 549.332 258.08 549.886L234.735 560.661C234.25 560.885 233.815 561.203 233.455 561.598L172.396 628.566C172.133 628.854 171.914 629.178 171.746 629.53L148.394 678.179C148.135 678.72 148 679.311 148 679.91V718.66C148 718.886 148.019 719.112 148.058 719.335L159.585 786.581C159.84 788.065 160.906 789.281 162.345 789.726L240.833 814.02C242.67 814.588 244.651 813.77 245.551 812.07L279.535 747.878C279.84 747.301 280 746.659 280 746.007V707V563.265C280 561.86 279.263 560.558 278.058 559.835Z" fill="#DF977D" fill-opacity="0.2" stroke="#CCCCCC" stroke-opacity="0.3"/>
<path class="can_interact" id="right_back_arm" d="M725.942 586.665L715.62 526.453C715.02 522.949 718.945 520.462 721.857 522.5L753.759 544.831C753.919 544.944 754.071 545.068 754.214 545.202L828 615L843.325 632.241C843.768 632.739 844.079 633.34 844.231 633.989L858 693L867.774 734.05C867.922 734.674 867.919 735.325 867.763 735.947L858.423 773.307C858.153 774.386 857.446 775.305 856.47 775.841L781.461 817.097C779.542 818.152 777.132 817.469 776.053 815.564L744.247 759.436C744.083 759.146 743.956 758.838 743.868 758.516L726.141 693.517C726.047 693.174 726 692.82 726 692.464V587.34C726 587.114 725.981 586.888 725.942 586.665Z" fill="#DF977D" fill-opacity="0.2" stroke="#CCCCCC" stroke-opacity="0.3"/>
<path class="can_interact" id="left_elbow" d="M239.052 814.196L157.164 791.863C155.324 791.361 153.386 792.228 152.533 793.933L142 815L128.893 846.832C128.341 848.171 128.557 849.703 129.455 850.838L164.799 895.483C165.558 896.441 166.713 897 167.935 897H229.528C231.043 897 232.428 896.144 233.106 894.789L241.578 877.845C241.855 877.289 242 876.677 242 876.056V818.055C242 816.251 240.793 814.671 239.052 814.196Z" fill="#DF977D" fill-opacity="0.2" stroke="#CCCCCC" stroke-opacity="0.3"/>
<path class="can_interact" id="right_elbow" d="M780 867V823.443C780 821.943 780.839 820.569 782.173 819.884L850.926 784.578C852.692 783.672 854.855 784.197 856.008 785.812L863.818 796.745C863.939 796.915 864.047 797.094 864.14 797.281L887.043 843.085C887.641 844.281 887.601 845.697 886.938 846.859L865 885.251C864.371 886.351 863.258 887.088 861.999 887.238L784.473 896.468C782.093 896.751 780 894.892 780 892.496V867Z" fill="#DF977D" fill-opacity="0.2" stroke="#CCCCCC" stroke-opacity="0.3"/>
<path class="can_interact" id="left_forearm" d="M98.2483 898.524L119.479 857.832C120.729 855.437 123.944 854.944 125.854 856.854L166.828 897.828C167.579 898.579 168.596 899 169.657 899H226C228.209 899 230 900.791 230 903V944.413C230 944.802 229.943 945.189 229.831 945.562L206.152 1024.49C206.051 1024.83 205.906 1025.15 205.722 1025.45L154.275 1108.56C154.093 1108.85 153.949 1109.17 153.848 1109.5L135.426 1170.29C134.691 1172.72 131.91 1173.86 129.683 1172.65L70.3997 1140.31C68.9527 1139.52 68.138 1137.92 68.3476 1136.29L78 1061L88 945L97.886 899.525C97.9616 899.176 98.0835 898.84 98.2483 898.524Z" fill="#DF977D" fill-opacity="0.2" stroke="#CCCCCC" stroke-opacity="0.3"/>
<g class="can_interact" id="right_forearm">
<path d="M824 1015L785.557 907.36C784.736 905.062 786.147 902.571 788.54 902.092L862.454 887.309C863.447 887.111 864.329 886.542 864.919 885.719L897 841L909.335 852.386C909.773 852.79 910.115 853.287 910.336 853.84L930 903L947.795 956.384C947.931 956.792 948 957.219 948 957.649V1014.37C948 1014.79 948.065 1015.2 948.192 1015.6L966 1071L992.294 1151.76C993.136 1154.35 991.209 1157 988.491 1157H922.526C920.983 1157 919.577 1156.11 918.914 1154.72L900.279 1115.59C900.094 1115.2 899.848 1114.84 899.549 1114.53L848.399 1061.41C848.134 1061.14 847.91 1060.83 847.734 1060.49L824 1015Z" fill="#DF977D" fill-opacity="0.2"/>
<path d="M884 829L897 841M897 841L909.335 852.386C909.773 852.79 910.115 853.287 910.336 853.84L930 903L947.795 956.384C947.931 956.792 948 957.219 948 957.649V1014.37C948 1014.79 948.065 1015.2 948.192 1015.6L966 1071L992.294 1151.76C993.136 1154.35 991.209 1157 988.491 1157H922.526C920.983 1157 919.577 1156.11 918.914 1154.72L900.279 1115.59C900.094 1115.2 899.848 1114.84 899.549 1114.53L848.399 1061.41C848.134 1061.14 847.91 1060.83 847.734 1060.49L824 1015L785.557 907.36C784.736 905.062 786.147 902.571 788.54 902.092L862.454 887.309C863.447 887.111 864.329 886.542 864.919 885.719L897 841Z" stroke="#CCCCCC" stroke-opacity="0.3"/>
</g>
<path class="can_interact" id="left_wrist" d="M60.9477 1187.21L68.8562 1155.58C69.4552 1153.18 72.061 1151.89 74.3272 1152.88L128.248 1176.24C129.356 1176.72 130.188 1177.68 130.511 1178.84L138.112 1206.2C138.943 1209.2 136.193 1211.95 133.197 1211.13L63.7677 1192.04C61.6727 1191.46 60.4208 1189.32 60.9477 1187.21Z" fill="#DF977D" fill-opacity="0.2" stroke="#CCCCCC" stroke-opacity="0.3"/>
<path class="can_interact" id="right_wrist" d="M996 1157H927.064C924.48 1157 922.575 1159.41 923.173 1161.93L931.102 1195.23C931.602 1197.33 933.682 1198.65 935.799 1198.22L996.807 1185.66C998.666 1185.27 1000 1183.64 1000 1181.74V1161C1000 1158.79 998.209 1157 996 1157Z" fill="#DF977D" fill-opacity="0.2" stroke="#CCCCCC" stroke-opacity="0.3"/>
<path class="can_interact" id="left_hand_back" d="M42.275 1242.3L58.718 1200.28C59.4511 1198.4 61.4614 1197.37 63.4131 1197.85L136.97 1216.24C138.751 1216.69 140 1218.29 140 1220.12V1287.98C140 1288.65 140.168 1289.31 140.488 1289.9L160.773 1327.08C162.227 1329.75 160.298 1333 157.262 1333H154C151.791 1333 150 1334.79 150 1337V1355C150 1357.21 148.209 1359 146 1359H134C131.791 1359 130 1360.79 130 1363V1384.45C130 1386.01 129.1 1387.42 127.692 1388.08L101.476 1400.31C100.53 1400.75 99.4483 1400.81 98.4629 1400.46L62.193 1387.77C60.8371 1387.29 59.8398 1386.13 59.5803 1384.71L42.0658 1289.36C42.022 1289.12 42 1288.88 42 1288.64V1243.75C42 1243.26 42.0933 1242.76 42.275 1242.3Z" fill="#DF977D" fill-opacity="0.2" stroke="#CCCCCC" stroke-opacity="0.3"/>
<path class="can_interact" id="right_hand_back" d="M932 1276.25V1206.1C932 1204.28 933.236 1202.68 935.004 1202.23L998.984 1185.78C1000.76 1185.32 1002.61 1186.13 1003.49 1187.73L1025.51 1228.1C1025.83 1228.69 1026 1229.35 1026 1230.02V1297V1322.65C1026 1322.88 1025.98 1323.12 1025.94 1323.34L1014.58 1387.7C1014.25 1389.61 1012.59 1391 1010.64 1391H978H964.073C962.773 1391 961.554 1390.37 960.805 1389.31L915.242 1324.76C914.467 1323.66 914.295 1322.25 914.785 1320.99L931.725 1277.7C931.907 1277.24 932 1276.74 932 1276.25Z" fill="#DF977D" fill-opacity="0.2" stroke="#CCCCCC" stroke-opacity="0.3"/>
<path class="can_interact" id="left_buttock" d="M332 1024.41V983.104C332 981.787 332.648 980.554 333.734 979.808L362.621 959.948C363.503 959.341 364.592 959.114 365.643 959.316L415.626 968.928C415.875 968.976 416.128 969 416.381 969H494.175C496.315 969 498.075 970.684 498.171 972.821L509.901 1234.79C509.963 1236.17 509.313 1237.48 508.182 1238.26L459.261 1272.13C458.449 1272.69 457.458 1272.93 456.478 1272.81L364.405 1261.05C364.136 1261.02 363.871 1260.96 363.614 1260.87L297.566 1238.22C295.563 1237.54 294.442 1235.41 295.009 1233.37L313.854 1165.53C313.951 1165.18 314 1164.82 314 1164.45V1085.59C314 1085.2 314.057 1084.81 314.169 1084.44L331.831 1025.56C331.943 1025.19 332 1024.8 332 1024.41Z" fill="#DF977D" fill-opacity="0.2" stroke="#CCCCCC" stroke-opacity="0.3"/>
<path class="can_interact" id="right_buttock" d="M606.343 975H500.218C497.925 975 496.102 976.923 496.223 979.212L509.924 1237.56C509.973 1238.49 510.346 1239.38 510.979 1240.06L533.479 1264.44C533.823 1264.81 534.235 1265.11 534.693 1265.33L579.181 1286.61C579.72 1286.87 580.31 1287 580.907 1287H619.118C619.699 1287 620.273 1286.87 620.8 1286.63L700.833 1249.54C701.592 1249.19 702.221 1248.61 702.633 1247.88L727.274 1204.29C727.742 1203.46 727.9 1202.49 727.717 1201.55L712 1121L702.139 1008.58C702.05 1007.57 701.575 1006.62 700.812 1005.94L666.718 975.638C666.246 975.219 665.681 974.917 665.07 974.757L622.218 963.578C620.844 963.22 619.383 963.617 618.379 964.621L609.172 973.828C608.421 974.579 607.404 975 606.343 975Z" fill="#DF977D" fill-opacity="0.2" stroke="#CCCCCC" stroke-opacity="0.3"/>
<path class="can_interact" id="left_hamstring" d="M276.057 1326.67L291.084 1238.38C291.537 1235.72 294.451 1234.26 296.856 1235.5L361.328 1268.65C361.772 1268.88 362.255 1269.03 362.752 1269.08L458.626 1278.86C459.516 1278.95 460.411 1278.74 461.168 1278.26L491.864 1258.88C494.527 1257.19 498 1259.11 498 1262.26V1309L488.056 1384.57C488.019 1384.86 487.951 1385.14 487.855 1385.4L460.096 1462.73C460.032 1462.91 459.981 1463.09 459.943 1463.28L446 1531L436 1561L418.605 1634.45C418.238 1636 416.985 1637.18 415.416 1637.46L362.349 1646.94C362.117 1646.98 361.881 1647 361.646 1647H280C277.791 1647 276 1645.21 276 1643V1617V1531.29C276 1531.1 275.986 1530.9 275.957 1530.71L266.075 1463.51C266.025 1463.17 266.019 1462.83 266.057 1462.49L276 1373V1327.34C276 1327.11 276.019 1326.89 276.057 1326.67Z" fill="#DF977D" fill-opacity="0.2" stroke="#CCCCCC" stroke-opacity="0.3"/>
<path class="can_interact" id="right_hamstring" d="M524 1382.35V1267.47C524 1264.5 527.129 1262.56 529.789 1263.89L579.155 1288.58C579.711 1288.86 580.323 1289 580.944 1289H625.137C625.706 1289 626.268 1288.88 626.786 1288.64L707.649 1252.06C709.08 1251.42 710 1249.99 710 1248.42V1242.11C710 1241.38 710.197 1240.67 710.57 1240.05L728.41 1210.32C730.324 1207.13 735.175 1208.05 735.786 1211.72L744 1261L761.957 1382.71C761.986 1382.9 762 1383.1 762 1383.29V1488.3C762 1488.76 761.92 1489.22 761.764 1489.66L744 1539L724.091 1630.58C724.031 1630.86 724 1631.14 724 1631.43V1665C724 1667.21 722.209 1669 720 1669H584C581.791 1669 580 1667.21 580 1665V1631.34C580 1631.11 579.981 1630.89 579.943 1630.67L552.051 1467.3C552.017 1467.1 551.968 1466.9 551.903 1466.71L524.205 1383.62C524.069 1383.21 524 1382.78 524 1382.35Z" fill="#DF977D" fill-opacity="0.2" stroke="#CCCCCC" stroke-opacity="0.3"/>
<path class="can_interact" id="left_back_knee" d="M270.694 1703.25L279.394 1656.27C279.745 1654.38 281.399 1653 283.327 1653H367.619C367.872 1653 368.125 1652.98 368.374 1652.93L413.844 1644.18C416.715 1643.63 419.189 1646.25 418.479 1649.08L410.099 1682.61C410.033 1682.87 409.941 1683.12 409.824 1683.37L387.355 1730.18C386.559 1731.83 384.735 1732.74 382.934 1732.36L338 1723L273.711 1707.87C271.633 1707.38 270.306 1705.35 270.694 1703.25Z" fill="#DF977D" fill-opacity="0.2" stroke="#CCCCCC" stroke-opacity="0.3"/>
<path class="can_interact" id="right_back_knee" d="M722 1673H586C583.791 1673 582 1674.79 582 1677V1701.79C582 1702.58 582.234 1703.35 582.672 1704.01L593.754 1720.63C593.918 1720.88 594.053 1721.14 594.159 1721.41L603.014 1744.44C603.608 1745.98 605.092 1747 606.747 1747H657.593C657.863 1747 658.134 1746.97 658.399 1746.92L722.807 1733.66C724.666 1733.27 726 1731.64 726 1729.74V1677C726 1674.79 724.209 1673 722 1673Z" fill="#DF977D" fill-opacity="0.2" stroke="#CCCCCC" stroke-opacity="0.3"/>
<path class="can_interact" id="left_calf" d="M218.128 1826.7L264.736 1716C265.472 1714.25 267.334 1713.26 269.195 1713.63L381.972 1735.81C384.809 1736.37 386.135 1739.66 384.477 1742.03L374.981 1755.6C374.354 1756.49 374.121 1757.61 374.335 1758.68L387.922 1826.61C387.974 1826.87 388 1827.13 388 1827.4V1904.25C388 1904.75 387.908 1905.24 387.728 1905.7L374.118 1940.7C374.04 1940.9 373.944 1941.09 373.834 1941.28L348.288 1984.51C348.097 1984.84 347.952 1985.18 347.859 1985.55L316 2109L304.463 2195.53C304.198 2197.52 302.503 2199 300.498 2199H234C231.791 2199 230 2197.21 230 2195V2149V1995.73C230 1995.25 229.914 1994.77 229.745 1994.32L218 1963L208.099 1919.44C208.033 1919.15 208 1918.85 208 1918.55V1869.47C208 1869.16 208.037 1868.85 208.109 1868.54L217.923 1827.32C217.974 1827.11 218.043 1826.9 218.128 1826.7Z" fill="#DF977D" fill-opacity="0.2" stroke="#CCCCCC" stroke-opacity="0.3"/>
<path class="can_interact" id="right_calf" d="M604 1788.21V1751C604 1748.79 605.791 1747 608 1747H659.716C659.905 1747 660.094 1746.99 660.281 1746.96L726.363 1737.52C728.42 1737.23 730.359 1738.56 730.826 1740.58L742 1789L752 1871V1942.67C752 1942.89 751.982 1943.11 751.946 1943.33L742 2003L730.044 2082.7C730.015 2082.9 730 2083.1 730 2083.3V2207.63C730 2209.57 728.595 2211.24 726.673 2211.57L652.083 2224.3C649.852 2224.68 647.749 2223.14 647.446 2220.89L614.148 1974.1C614.051 1973.38 613.761 1972.7 613.308 1972.13L590.608 1943.76C590.208 1943.26 589.935 1942.67 589.809 1942.05L580.078 1893.39C580.026 1893.13 580 1892.87 580 1892.6V1861.52C580 1861.17 580.044 1860.83 580.132 1860.5L590 1823L603.699 1789.73C603.898 1789.25 604 1788.73 604 1788.21Z" fill="#DF977D" fill-opacity="0.2" stroke="#CCCCCC" stroke-opacity="0.3"/>
<path class="can_interact" id="left_back_ankle" d="M234 2253V2207C234 2204.79 235.791 2203 238 2203H300C302.209 2203 304 2204.79 304 2207V2234.4C304 2234.8 304.06 2235.19 304.177 2235.57L311.623 2259.77C311.868 2260.57 311.858 2261.43 311.595 2262.22L304 2285L293.006 2312.49C292.398 2314 290.927 2315 289.292 2315H270H248.708C247.073 2315 245.602 2314 244.994 2312.49L234.286 2285.72C234.097 2285.24 234 2284.74 234 2284.23V2253Z" stroke="#CCCCCC" stroke-opacity="0.3"/>
<path class="can_interact" id="right_back_ankle" d="M638.316 2267.95L649.324 2231.25C649.741 2229.86 650.879 2228.81 652.298 2228.5L727.142 2212.07C729.638 2211.52 732 2213.42 732 2215.97V2243V2278.51C732 2278.83 731.96 2279.16 731.881 2279.48L720.875 2323.5C720.378 2325.49 718.458 2326.78 716.429 2326.49L652.663 2317.38C651.053 2317.15 649.742 2315.97 649.348 2314.39L638.267 2270.07C638.092 2269.37 638.109 2268.64 638.316 2267.95Z" fill="#DF977D" fill-opacity="0.2" stroke="#CCCCCC" stroke-opacity="0.3"/>
<path class="can_interact" id="left_back_foot" d="M187.018 2286.44L225.94 2265.21C228.081 2264.05 230.759 2265.05 231.606 2267.34L249.033 2314.39C249.614 2315.96 251.111 2317 252.784 2317H264H294C296.209 2317 298 2318.79 298 2321V2341V2351.16C298 2352.33 297.49 2353.44 296.603 2354.2L285.123 2364.04C284.398 2364.66 283.475 2365 282.52 2365H264.685C264.232 2365 263.782 2364.92 263.354 2364.77L230.74 2353.26C230.251 2353.09 229.801 2352.82 229.414 2352.48L178.396 2307.13C176.996 2305.89 176.647 2303.84 177.557 2302.2L185.437 2288.01C185.805 2287.35 186.353 2286.81 187.018 2286.44Z" fill="#DF977D" fill-opacity="0.2" stroke="#CCCCCC" stroke-opacity="0.3"/>
<path class="can_interact" id="right_back_foot" d="M764.898 2268.1L740.522 2248.3C737.908 2246.18 734 2248.04 734 2251.4V2278.4C734 2278.8 733.94 2279.19 733.823 2279.57L719.001 2327.75C718.424 2329.62 716.572 2330.8 714.628 2330.53L649.559 2321.49C647.535 2321.21 645.624 2322.5 645.128 2324.49L640.512 2342.95C640.192 2344.23 640.525 2345.59 641.403 2346.58L654.807 2361.66C655.566 2362.51 656.654 2363 657.796 2363H716.802C717.584 2363 718.348 2362.77 719.001 2362.34L792.999 2313.66C793.652 2313.23 794.416 2313 795.198 2313H816C818.209 2313 820 2311.21 820 2309V2292.86C820 2291.68 819.482 2290.56 818.584 2289.8L795.119 2269.95C794.396 2269.34 793.481 2269 792.535 2269H767.42C766.501 2269 765.611 2268.68 764.898 2268.1Z" fill="#DF977D" fill-opacity="0.2" stroke="#CCCCCC" stroke-opacity="0.3"/>
</g>
<defs>
<pattern id="pattern0" patternContentUnits="objectBoundingBox" width="1" height="1">
<use xlink:href="#image0_19_198" transform="matrix(0.00150616 0 0 0.000643501 -0.0136005 0)"/>
</pattern>
<image id="image0_19_198" data-name="anatomy_skeleton_back.png" width="682" height="1554" xlink:href="./images/anatomy_back.png"/>
</defs>
</svg>
