<svg width="1516" height="2402" viewBox="0 0 1516 2402" fill="none" xmlns="http://www.w3.org/2000/svg" xmlns:xlink="http://www.w3.org/1999/xlink">
 <style>
    .can_interact:hover {
  fill: red;
  cursor: pointer;
  fill-opacity: 0.9;
  transition-property: all;
  transition-timing-function: cubic-bezier(0.4, 0, 0.2, 1);
  transition-duration: 150ms;
}
  </style>
<g id="anatomy_back" clip-path="url(#clip0_19_198)">
<rect id="body_back" y="15" width="1516" height="2371" fill="url(#pattern0)"/>
<path class="can_interact" id="head_back" d="M716.705 46H754H794.718C795.552 46 796.365 46.2605 797.043 46.7451L833.903 73.0739C834.298 73.3556 834.638 73.7067 834.907 74.11L854.828 103.992C855.266 104.649 855.5 105.421 855.5 106.211V147V206.201C855.5 206.4 855.485 206.599 855.455 206.796L835.013 342.595C834.718 344.553 833.036 346 831.057 346H677.277C675.371 346 673.73 344.656 673.355 342.787L646 206.5L628.9 148.359C628.641 147.48 628.692 146.538 629.045 145.692L645.742 105.618C645.913 105.209 646.15 104.831 646.445 104.499L673.654 73.8892C673.884 73.6308 674.146 73.4033 674.434 73.2123L714.495 46.6656C715.151 46.2315 715.919 46 716.705 46Z" fill="#DF977D" fill-opacity="0.3" stroke="#CCCCCC"/>
<path class="can_interact" id="neck_back" d="M657.104 404.121L679.951 351.897C680.588 350.441 682.027 349.5 683.616 349.5H821.384C822.973 349.5 824.412 350.441 825.049 351.897L847.932 404.202C848.299 405.042 848.944 405.73 849.759 406.151L935.398 450.447C939.121 452.373 937.751 458 933.56 458H562.458C558.182 458 556.888 452.193 560.76 450.378L655.137 406.139C656.015 405.727 656.715 405.01 657.104 404.121Z" fill="#DF977D" fill-opacity="0.3" stroke="#CCCCCC"/>
<path class="can_interact" id="left_back_shoulder" d="M506.738 475.192L542.133 460.445C544.852 459.312 547.821 461.406 547.666 464.347L544.547 523.611C544.516 524.197 544.357 524.768 544.081 525.285L513.355 582.836C513.12 583.275 512.806 583.666 512.428 583.99L397.642 682.309C395.924 683.78 393.329 683.536 391.916 681.77L381.131 668.289C380.717 667.771 380.438 667.158 380.319 666.506L373.628 629.705C373.543 629.239 373.542 628.761 373.625 628.294L383.922 569.944C383.974 569.649 384.059 569.361 384.175 569.085L401.196 528.721C401.397 528.245 401.688 527.812 402.053 527.447L435.947 493.553C436.312 493.188 436.745 492.897 437.221 492.696L477.255 475.814C477.747 475.607 478.275 475.5 478.809 475.5H505.2C505.728 475.5 506.251 475.395 506.738 475.192Z" fill="#DF977D" fill-opacity="0.3" stroke="#CCCCCC"/>
<path class="can_interact" id="right_back_shoulder" d="M1001.22 475.266L972.149 466.545C969.583 465.775 967 467.697 967 470.376V506.136C967 506.705 967.122 507.268 967.357 507.787L998.124 575.67C998.371 576.216 998.739 576.7 999.198 577.085L1122.28 680.207C1124.73 682.258 1128.47 680.756 1128.82 677.583L1131.5 653.5V604.875C1131.5 604.626 1131.48 604.377 1131.43 604.131L1121.16 549.828C1121.05 549.282 1120.84 548.763 1120.52 548.306L1083.16 493.954C1082.73 493.331 1082.13 492.842 1081.44 492.544L1034.47 472.415C1033.83 472.143 1033.14 472.04 1032.45 472.116L1002.81 475.41C1002.28 475.469 1001.73 475.42 1001.22 475.266Z" fill="#DF977D" fill-opacity="0.3" stroke="#CCCCCC"/>
<path class="can_interact" id="back" d="M555 520.171V465C555 463.067 556.567 461.5 558.5 461.5L959.79 464.968C961.883 464.986 963.608 466.614 963.747 468.702L966.963 516.947C966.988 517.314 967.063 517.676 967.186 518.022L987.633 575.469C987.873 576.144 988.29 576.742 988.841 577.201L1027.44 609.368C1028.92 610.603 1029.31 612.721 1028.37 614.402L998.893 666.802C998.633 667.263 998.468 667.77 998.406 668.296L991.5 727L981.083 803.389C981.028 803.794 980.911 804.188 980.736 804.558L947.571 874.733C946.916 876.119 945.526 877.009 943.993 877.024L578.12 880.48C576.794 880.492 575.548 879.847 574.793 878.757L544.892 835.566C544.633 835.192 544.439 834.775 544.32 834.335L520.139 745.013C520.047 744.673 520 744.321 520 743.968V664.791C520 664.269 519.898 663.751 519.699 663.268L496.569 607.095C495.927 605.538 496.33 603.745 497.577 602.612L533.362 570.08C533.783 569.698 534.117 569.23 534.342 568.709L554.671 521.761C554.888 521.259 555 520.718 555 520.171Z" fill="#DF977D" fill-opacity="0.3" stroke="#CCCCCC"/>
<path class="can_interact" id="loin" d="M576 922.061V884.5C576 882.291 577.791 880.5 580 880.5H941.377C943.979 880.5 945.889 882.946 945.257 885.47L936.243 921.53C936.083 922.167 936.083 922.833 936.243 923.47L942.925 950.2C942.975 950.4 943.009 950.603 943.028 950.808L945.883 982.216C946.16 985.257 943.065 987.473 940.275 986.233L916.033 975.459C915.358 975.159 914.612 975.052 913.88 975.149L862.5 982L762.054 1009.71C761.364 1009.9 760.636 1009.9 759.945 1009.71L670.5 985.5L625.937 975.216C625.321 975.074 624.68 975.08 624.067 975.233L573.97 987.757C571.446 988.389 569 986.479 569 983.877V954.439C569 954.147 569.032 953.856 569.095 953.571L575.905 922.929C575.968 922.644 576 922.353 576 922.061Z" fill="#DF977D" fill-opacity="0.3" stroke="#CCCCCC"/>
<path class="can_interact" id="left_back_arm" d="M394.766 688.28L487.913 611.374C489.962 609.683 493.06 610.422 494.124 612.856L516.044 662.958C516.342 663.639 516.444 664.39 516.339 665.126L513 688.5L506 741L492.162 792.892C492.055 793.295 491.885 793.678 491.659 794.029L467.5 831.5L431.364 901.394C430.339 903.377 427.89 904.137 425.922 903.083L334.696 854.212C332.882 853.24 332.101 851.052 332.89 849.152L355.741 794.124C355.912 793.711 356.013 793.272 356.04 792.825L359.436 735.082C359.478 734.373 359.708 733.689 360.101 733.098L373.5 713L394.276 688.762C394.425 688.588 394.589 688.427 394.766 688.28Z" fill="#DF977D" fill-opacity="0.3" stroke="#CCCCCC"/>
<path class="can_interact" id="right_back_arm" d="M1127.46 688.038L1037.39 611.312C1035.41 609.627 1032.38 610.245 1031.22 612.568L999.162 676.677C998.735 677.531 998.627 678.509 998.859 679.436L1023 776L1029.82 813.514C1029.94 814.161 1030.21 814.77 1030.62 815.285L1068.24 862.674C1068.41 862.891 1068.56 863.125 1068.69 863.372L1094.61 915.218C1095.64 917.272 1098.18 918.041 1100.17 916.902L1191.53 864.694C1193.24 863.718 1193.99 861.646 1193.29 859.806L1173.6 807.768C1173.53 807.59 1173.48 807.407 1173.44 807.22L1159.63 745.078C1159.54 744.695 1159.4 744.326 1159.21 743.984L1128.35 689.122C1128.12 688.71 1127.82 688.343 1127.46 688.038Z" fill="#DF977D" fill-opacity="0.3" stroke="#CCCCCC"/>
<path class="can_interact" id="left_back_elbow" d="M307.411 876.452L325.824 851.901C327.059 850.255 329.341 849.814 331.1 850.882L424.076 907.332C425.271 908.057 426 909.353 426 910.751V945.789C426 946.579 425.766 947.351 425.328 948.008L405.816 977.277C405.289 978.066 404.499 978.643 403.586 978.904L381.236 985.29C380.75 985.429 380.242 985.474 379.739 985.424L346.72 982.122C345.925 982.043 345.172 981.727 344.558 981.215L325.113 965.01C324.708 964.673 324.374 964.26 324.13 963.794L287.67 894.188C286.72 892.375 287.292 890.139 288.994 889.004L306.43 877.38C306.807 877.129 307.139 876.815 307.411 876.452Z" fill="#DF977D" fill-opacity="0.3" stroke="#CCCCCC"/>
<path class="can_interact" id="right_back_elbow" d="M1099.94 949.872L1096.84 918.94C1096.65 916.965 1097.93 915.143 1099.85 914.661L1123.85 908.662C1124.28 908.555 1124.69 908.377 1125.06 908.135L1191.56 864.909C1193.24 863.816 1195.47 864.137 1196.78 865.66L1215.5 887.5L1244.4 916.867C1245.65 918.132 1245.91 920.065 1245.05 921.616L1229.47 949.663C1229.16 950.213 1228.73 950.684 1228.21 951.036L1187.79 978.303C1187.6 978.434 1187.39 978.548 1187.18 978.643L1128.18 1004.87C1126.15 1005.77 1123.78 1004.85 1122.89 1002.81L1100.25 951.078C1100.09 950.695 1099.98 950.288 1099.94 949.872Z" fill="#DF977D" fill-opacity="0.3" stroke="#CCCCCC"/>
<path class="can_interact" id="left_back_forearm" d="M251.364 939.499L275.917 905.74C277.469 903.605 280.626 903.533 282.275 905.594L347.702 987.377C348.516 988.394 349.774 988.952 351.075 988.87L398.277 985.92C401.307 985.731 403.435 988.853 402.152 991.604L380.644 1037.69C380.548 1037.9 380.435 1038.09 380.306 1038.28L342.165 1093.26C342.055 1093.42 341.934 1093.57 341.803 1093.71L293 1146L245.934 1209.88C244.808 1211.4 242.763 1211.93 241.039 1211.13L164.549 1175.87C162.387 1174.87 161.569 1172.22 162.794 1170.18L192 1121.5L215.792 1069.95C215.93 1069.65 216.031 1069.34 216.092 1069.01L226.5 1013.5L250.804 940.587C250.934 940.198 251.123 939.831 251.364 939.499Z" fill="#DF977D" fill-opacity="0.3" stroke="#CCCCCC"/>
<path class="can_interact" id="right_back_forearm" d="M1148.89 1058.72L1129.42 1010.05C1128.63 1008.06 1129.53 1005.8 1131.48 1004.92L1234.63 958.12C1235.51 957.72 1236.22 957.014 1236.62 956.133L1249.62 927.528C1251.08 924.322 1255.67 924.428 1256.98 927.698L1267.5 954L1302.5 1045L1316.37 1099.97C1316.45 1100.32 1316.59 1100.66 1316.77 1100.98L1356.9 1171.19C1357.83 1172.83 1357.5 1174.9 1356.09 1176.16L1295.11 1230.72C1293.41 1232.24 1290.8 1232.04 1289.35 1230.28L1243 1174L1173.81 1100.83C1173.6 1100.61 1173.42 1100.37 1173.27 1100.11L1149.16 1059.26C1149.05 1059.09 1148.96 1058.9 1148.89 1058.72Z" fill="#DF977D" fill-opacity="0.3" stroke="#CCCCCC"/>
<path class="can_interact" id="left_wrist" d="M147.486 1189.92L161.81 1167C163.008 1165.09 165.555 1164.54 167.431 1165.8L234.185 1210.61C235.809 1211.7 236.406 1213.81 235.597 1215.59L221.32 1247C220.344 1249.14 217.731 1249.98 215.686 1248.81L132.073 1200.79C128.774 1198.89 129.734 1193.9 133.5 1193.36L144.659 1191.76C145.826 1191.6 146.861 1190.92 147.486 1189.92Z" fill="#DF977D" fill-opacity="0.3" stroke="#CCCCCC"/>
<path class="can_interact" id="right_wrist" d="M1359.22 1179.58L1294.45 1228.16C1293.01 1229.25 1292.47 1231.17 1293.14 1232.85L1304.99 1262.49C1305.6 1264 1307.07 1265 1308.71 1265H1325.34C1326.4 1265 1327.42 1264.58 1328.17 1263.83L1362 1230L1384.04 1204.82C1385.42 1203.23 1385.34 1200.84 1383.85 1199.35L1364.45 1179.95C1363.05 1178.55 1360.82 1178.39 1359.22 1179.58Z" fill="#DF977D" fill-opacity="0.3" stroke="#CCCCCC"/>
<path class="can_interact" id="left_back_hand" d="M94.9501 1211.93L126.829 1192.8C128.155 1192.01 129.82 1192.05 131.106 1192.9L160.5 1212.5L220.475 1249.44C221.975 1250.37 222.694 1252.16 222.245 1253.87L205.643 1316.96C205.548 1317.32 205.403 1317.66 205.213 1317.98L185.561 1351.06C185.194 1351.67 185 1352.38 185 1353.1V1379.35C185 1379.78 184.931 1380.21 184.795 1380.62L175.234 1409.3C174.78 1410.66 173.631 1411.67 172.224 1411.96L162.253 1413.95C159.631 1414.47 157.243 1412.33 157.485 1409.66L160.5 1376.5V1354.05C160.5 1351.32 157.825 1349.39 155.235 1350.25L152.735 1351.09C151.102 1351.63 150 1353.16 150 1354.88V1392.87C150 1393.61 149.795 1394.33 149.407 1394.96L123.171 1437.6C122.443 1438.78 121.154 1439.5 119.765 1439.5H109.528C106.956 1439.5 105.052 1437.11 105.631 1434.6L115 1394L119.391 1374.97C120.426 1370.49 114.305 1368.09 112.02 1372.09L111.659 1372.72C111.553 1372.91 111.462 1373.1 111.387 1373.3L101.147 1400.61C101.049 1400.87 100.925 1401.12 100.776 1401.35L77.6789 1437.65C76.9446 1438.8 75.6718 1439.5 74.3042 1439.5H61.847C58.904 1439.5 56.9687 1436.43 58.2384 1433.77L93.5243 1359.99C93.8356 1359.34 93.9651 1358.62 93.8989 1357.9L91.6352 1333.33C91.2792 1329.46 86.1808 1328.32 84.2076 1331.66L66 1362.5L35.817 1416.16C35.0205 1417.57 33.4466 1418.37 31.8345 1418.17L12.772 1415.78C9.85821 1415.42 8.31697 1412.14 9.89348 1409.67L55.5 1338L76.1247 1293.8C76.3719 1293.27 76.5 1292.7 76.5 1292.11V1259.91C76.5 1256.46 72.4222 1254.62 69.8426 1256.92L45.3113 1278.72C45.1043 1278.91 44.8788 1279.07 44.6384 1279.21L23.1526 1291.48C21.5865 1292.38 19.6151 1292.12 18.3397 1290.84L9.81006 1282.31C8.07204 1280.57 8.29799 1277.69 10.2858 1276.25L44.5832 1251.3C44.8599 1251.1 45.1097 1250.87 45.3264 1250.6L75.2997 1213.97C76.0594 1213.04 77.1958 1212.5 78.3955 1212.5H92.8921C93.617 1212.5 94.3284 1212.3 94.9501 1211.93Z" fill="#DF977D" fill-opacity="0.3" stroke="#CCCCCC"/>
<path class="can_interact" id="right_back_hand" d="M1442.17 1233.36L1389.23 1210.19C1387.61 1209.49 1385.72 1209.93 1384.57 1211.28L1348.86 1253.49C1348.3 1254.14 1347.55 1254.6 1346.7 1254.8L1305.6 1264.28C1303.79 1264.7 1302.5 1266.32 1302.5 1268.18V1306.1C1302.5 1306.69 1302.63 1307.28 1302.89 1307.81L1330.25 1365.47C1330.42 1365.82 1330.53 1366.19 1330.59 1366.58L1337.4 1410.88C1337.47 1411.29 1337.59 1411.69 1337.78 1412.06L1353.63 1443.77C1354.44 1445.38 1356.23 1446.25 1358 1445.9L1368.25 1443.85C1370.54 1443.39 1371.95 1441.08 1371.31 1438.83L1358.73 1394.82C1358.58 1394.28 1358.54 1393.71 1358.62 1393.16L1359.6 1386.27C1360.2 1382.1 1366.02 1381.57 1367.36 1385.57L1379.5 1422L1402.4 1471.07C1403.3 1473 1405.54 1473.88 1407.51 1473.1L1417.56 1469.08C1419.7 1468.22 1420.67 1465.74 1419.69 1463.66L1393.88 1408.81C1393.63 1408.28 1393.5 1407.69 1393.5 1407.11V1385.49C1393.5 1381.14 1399.46 1379.91 1401.18 1383.91L1414.38 1414.72C1414.46 1414.91 1414.55 1415.09 1414.66 1415.26L1447.19 1467.31C1448.43 1469.29 1451.11 1469.79 1452.98 1468.39L1461.15 1462.26C1462.55 1461.21 1463.1 1459.38 1462.52 1457.73L1430.66 1367.39C1429.06 1362.86 1435.34 1359.87 1437.84 1363.97L1481.93 1436.11C1483.08 1437.99 1485.52 1438.59 1487.4 1437.46L1498.24 1430.96C1500.07 1429.86 1500.71 1427.52 1499.71 1425.64L1449.86 1332.17C1449.62 1331.73 1449.47 1331.25 1449.41 1330.75L1443.37 1279.4C1443 1276.23 1446.3 1273.92 1449.15 1275.36L1479.57 1290.76C1482.26 1292.12 1485.5 1291.75 1487.81 1289.82C1496.4 1282.66 1495.71 1269.26 1486.43 1263.02L1442.8 1233.7C1442.6 1233.57 1442.39 1233.45 1442.17 1233.36Z" fill="#DF977D" fill-opacity="0.3" stroke="#CCCCCC"/>
<path class="can_interact" id="left_buttock" d="M544.922 1040.66L568.298 993.905C568.749 993.002 569.525 992.303 570.471 991.948L596.159 982.315C596.713 982.108 597.306 982.025 597.895 982.075L639 985.5L688 996L758.387 1019.62C759.96 1020.15 761.044 1021.6 761.111 1023.25L764.5 1107.5L757.59 1207.69C757.532 1208.54 757.203 1209.35 756.653 1210L719.639 1253.75C719.219 1254.24 718.685 1254.63 718.083 1254.87L667.562 1275.27C667.189 1275.42 666.796 1275.52 666.396 1275.55L625.748 1278.94C625.254 1278.98 624.756 1278.93 624.28 1278.79L533.665 1251.94C531.828 1251.39 530.634 1249.62 530.821 1247.71L544.5 1107.5V1042.44C544.5 1041.82 544.645 1041.21 544.922 1040.66Z" fill="#DF977D" fill-opacity="0.3" stroke="#CCCCCC"/>
<path class="can_interact" id="right_buttock" d="M865.403 982.192L770.728 1012.62C769.097 1013.15 767.981 1014.65 767.952 1016.36L764.519 1221.86C764.507 1222.6 764.704 1223.34 765.089 1223.98L774.677 1239.96C774.891 1240.32 775.16 1240.64 775.473 1240.91L802.231 1264.33C802.736 1264.77 803.343 1265.08 803.997 1265.22L834.5 1272L899.833 1278.88C900.595 1278.96 901.364 1278.82 902.049 1278.47L981.739 1238.39C983.365 1237.57 984.234 1235.76 983.852 1233.98L974.089 1188.41C974.03 1188.14 974 1187.86 974 1187.58V1093.5V1056.22C974 1055.75 973.914 1055.27 973.746 1054.82L947.472 984.598C946.887 983.036 945.394 982 943.726 982H904.5H866.627C866.212 982 865.799 982.065 865.403 982.192Z" fill="#DF977D" fill-opacity="0.3" stroke="#CCCCCC"/>
<path class="can_interact" id="left_hamstring" d="M513.175 1313.13L524.689 1255.55C525.853 1249.74 532.231 1246.62 537.539 1249.27L608.271 1284.64C610.041 1285.52 612.053 1285.8 613.996 1285.42L699.693 1268.94C701.206 1268.65 702.618 1267.98 703.796 1266.99L738.027 1238.12C740.42 1236.1 744.098 1237.48 744.562 1240.58L753.7 1301.5C753.897 1302.82 753.8 1304.16 753.415 1305.44L733.431 1371.57C733.145 1372.52 733.017 1373.5 733.051 1374.49L736.42 1472.19C736.473 1473.72 736.235 1475.24 735.718 1476.67L705.871 1559.58C705.3 1561.17 705.139 1562.87 705.404 1564.54L713.982 1618.46C714.803 1623.62 711.077 1628.39 705.876 1628.84L563.628 1641.25C558.81 1641.67 554.521 1638.21 553.916 1633.41L548 1586.5L513.282 1451.1C513.095 1450.37 513 1449.62 513 1448.86V1314.89C513 1314.3 513.059 1313.71 513.175 1313.13Z" fill="#DF977D" fill-opacity="0.3" stroke="#CCCCCC"/>
<path class="can_interact" id="right_hamstring" d="M1005.35 1330.69L990.351 1249.7C989.211 1243.54 982.285 1240.4 976.901 1243.6L913.626 1281.24C912.235 1282.06 910.645 1282.5 909.026 1282.5H880.812C880.272 1282.5 879.733 1282.45 879.202 1282.35L805.483 1268.95C803.859 1268.66 802.347 1267.92 801.114 1266.82L775.202 1243.79C773.518 1242.29 770.845 1243.12 770.299 1245.31L764.769 1267.43C764.59 1268.14 764.5 1268.87 764.5 1269.61V1288.76C764.5 1289.25 764.541 1289.75 764.622 1290.23L771.378 1330.77C771.459 1331.25 771.5 1331.75 771.5 1332.24V1376.5V1466.19C771.5 1467.06 771.625 1467.92 771.871 1468.75L799.129 1560.75C799.375 1561.58 799.5 1562.44 799.5 1563.31V1613.08C799.5 1617.61 802.865 1621.43 807.357 1622.01L953.357 1640.7C958.737 1641.39 963.5 1637.2 963.5 1631.77V1588.38C963.5 1587.14 963.757 1585.91 964.255 1584.78L987.611 1531.39C987.869 1530.8 988.064 1530.18 988.19 1529.55L1005.33 1443.87C1005.44 1443.29 1005.5 1442.7 1005.5 1442.11V1332.33C1005.5 1331.78 1005.45 1331.23 1005.35 1330.69Z" fill="#DF977D" fill-opacity="0.3" stroke="#CCCCCC"/>
<path class="can_interact" id="left_back_knee" d="M708.068 1632.19L560.518 1641.43C555.543 1641.75 551.769 1646.04 552.101 1651.02L555 1694.5V1727.26C555 1732.32 559.175 1736.39 564.237 1736.26L682.552 1733.14C685.901 1733.06 688.924 1731.11 690.397 1728.11L711.355 1685.32C711.782 1684.44 712.065 1683.51 712.194 1682.55L717.552 1642.36C718.302 1636.74 713.728 1631.83 708.068 1632.19Z" fill="#DF977D" fill-opacity="0.3" stroke="#CCCCCC"/>
<path class="can_interact" id="right_back_knee" d="M963.8 1644.27L812.017 1626.01C805.884 1625.27 800.847 1630.79 802.142 1636.83L809.786 1672.5C809.928 1673.17 810.145 1673.81 810.431 1674.42L832.076 1720.81C833.555 1723.97 836.735 1726 840.232 1726H955.671C961.464 1726 965.748 1720.61 964.438 1714.96L960.998 1700.14C960.671 1698.74 960.688 1697.27 961.048 1695.87L971.442 1655.45C972.797 1650.18 969.202 1644.92 963.8 1644.27Z" fill="#DF977D" fill-opacity="0.3" stroke="#CCCCCC"/>
<path class="can_interact" id="left_calf" d="M527.255 1850.45L553.279 1743.57C554.283 1739.45 558.031 1736.58 562.273 1736.7L671.686 1739.74C676.777 1739.88 680.736 1744.22 680.419 1749.3L677.614 1794.17C677.539 1795.38 677.707 1796.59 678.109 1797.73L701.488 1864.05C701.827 1865.01 702 1866.02 702 1867.04V1920.04C702 1921.01 701.844 1921.97 701.538 1922.89L674.462 2004.11C674.156 2005.03 674 2005.99 674 2006.96V2043.01C674 2043.67 673.928 2044.32 673.786 2044.96L667.24 2074.42C667.081 2075.14 667.01 2075.87 667.029 2076.61L670.267 2199.17C670.396 2204.07 666.577 2208.18 661.679 2208.4L601.631 2211.13C597.014 2211.34 592.989 2208.02 592.317 2203.45L572.615 2069.29C572.539 2068.76 572.416 2068.25 572.249 2067.75L555 2016L527.269 1905.07C527.09 1904.36 527 1903.63 527 1902.89V1852.58C527 1851.86 527.086 1851.15 527.255 1850.45Z" fill="#DF977D" fill-opacity="0.3" stroke="#CCCCCC"/>
<path class="can_interact" id="right_calf" d="M963.057 1726H841.28C835.837 1726 831.639 1730.79 832.359 1736.19L837.725 1776.44C837.906 1777.79 837.775 1779.17 837.342 1780.47L817.239 1840.78C817.08 1841.26 816.961 1841.75 816.884 1842.25L810.157 1885.49C810.053 1886.16 810.024 1886.84 810.073 1887.52L813.409 1934.23C813.469 1935.07 813.649 1935.9 813.941 1936.7L837.445 2000.49C837.812 2001.49 838 2002.54 838 2003.61V2033.5L845 2120.5L851.807 2174.95C851.935 2175.98 851.886 2177.01 851.662 2178.02L840.973 2226.12C839.568 2232.44 845.099 2238.13 851.458 2236.91L922.763 2223.2C926.502 2222.48 929.384 2219.49 929.96 2215.72L960.5 2016L984.5 1925L997.97 1874.49C998.319 1873.18 998.368 1871.81 998.114 1870.48L971.897 1733.31C971.086 1729.07 967.376 1726 963.057 1726Z" fill="#DF977D" fill-opacity="0.3" stroke="#CCCCCC"/>
<path class="can_interact" id="left_back_ankle" d="M570.62 2276.87L591.391 2217.53C592.654 2213.92 596.061 2211.5 599.885 2211.5H661.5C666.471 2211.5 670.5 2215.53 670.5 2220.5V2260.5V2304C670.5 2308.97 666.471 2313 661.5 2313H597.902C595.124 2313 592.503 2311.72 590.798 2309.53L572.01 2285.37C570.134 2282.96 569.61 2279.76 570.62 2276.87Z" fill="#DF977D" fill-opacity="0.3" stroke="#CCCCCC"/>
<path class="can_interact" id="right_back_ankle" d="M917.879 2216.91L848.317 2234.3C844.311 2235.3 841.5 2238.9 841.5 2243.03V2290C841.5 2294.97 845.529 2299 850.5 2299H901.242C903.347 2299 905.386 2298.26 907.003 2296.91L923.889 2282.84C924.949 2281.96 925.791 2280.84 926.352 2279.58L937.957 2253.47C938.944 2251.25 938.991 2248.73 938.089 2246.47L928.418 2222.29C926.746 2218.12 922.245 2215.81 917.879 2216.91Z" fill="#DF977D" fill-opacity="0.3" stroke="#CCCCCC"/>
<path class="can_interact" id="left_back_foot" d="M502.309 2266.26L566.642 2242.13C573.493 2239.57 580.384 2245.81 578.499 2252.88L570.007 2284.72C569.365 2287.13 569.75 2289.7 571.071 2291.81L583.975 2312.46C585.554 2314.99 588.283 2316.57 591.261 2316.68L666.95 2319.59C672.485 2319.81 676.516 2324.92 675.429 2330.35L671.845 2348.28C671.05 2352.25 667.701 2355.2 663.661 2355.49L629.205 2357.95C628.736 2357.98 628.264 2357.98 627.795 2357.94L596.069 2355.22C594.39 2355.08 592.785 2354.46 591.437 2353.45L553.572 2325.05C552.218 2324.04 550.606 2323.43 548.919 2323.28L513.831 2320.36C511.095 2320.13 508.612 2318.67 507.09 2316.38L491.397 2292.85C489.606 2290.16 489.391 2286.72 490.836 2283.83L497.419 2270.66C498.435 2268.63 500.182 2267.06 502.309 2266.26Z" fill="#DF977D" fill-opacity="0.3" stroke="#CCCCCC"/>
<path class="can_interact" id="right_back_foot" d="M982.142 2262.3L949.289 2238.59C943.531 2234.43 935.455 2238.27 935.038 2245.36L932.806 2283.31C932.617 2286.52 930.725 2289.39 927.846 2290.83L905.981 2301.76C905.002 2302.25 903.942 2302.56 902.852 2302.66L872.091 2305.74C870.398 2305.91 868.692 2305.6 867.171 2304.84L852.399 2297.45C846.983 2294.74 840.492 2298.05 839.497 2304.02L835.335 2328.99C834.817 2332.1 835.962 2335.25 838.355 2337.3L859.972 2355.83C861.603 2357.23 863.681 2358 865.829 2358H894.925C896.608 2358 898.257 2357.53 899.686 2356.64L934.955 2334.65C935.648 2334.22 936.398 2333.88 937.182 2333.65L1013.03 2311.4C1016.87 2310.27 1019.5 2306.76 1019.5 2302.76V2288.5V2273C1019.5 2268.03 1015.47 2264 1010.5 2264H1002H987.408C985.518 2264 983.675 2263.4 982.142 2262.3Z" fill="#DF977D" fill-opacity="0.3" stroke="#CCCCCC"/>
</g>
<defs>
<pattern id="pattern0" patternContentUnits="objectBoundingBox" width="1" height="1">
<use xlink:href="#image0_19_198" transform="matrix(0.00109599 0 0 0.000700771 -0.00744546 0)"/>
</pattern>
<clipPath class="can_interact" id="clip0_19_198">
<rect width="1516" height="2402" fill="white"/>
</clipPath>
<image id="image0_19_198" data-name="back_ana.png" width="926" height="1427" xlink:href="/images/anatomy_back.png"/> </defs></svg>