<svg width="1083" height="2402" viewBox="0 0 1083 2402" fill="none" xmlns="http://www.w3.org/2000/svg" xmlns:xlink="http://www.w3.org/1999/xlink">
<style>
    .can_interact:hover {
  fill: red;
  cursor: pointer;
  fill-opacity: 0.9;
  transition-property: all;
  transition-timing-function: cubic-bezier(0.4, 0, 0.2, 1);
  transition-duration: 150ms;
}
  </style>
<g id="anatomy_front">
<g id="body_frame">
<path d="M460 355V297L452 285V254H440L423 231L417 209V181L428 176L440 198V171L433 127L440 88L466 56L497 38L532 29L578 38L617 71L631 104V138V189L639 176H652V222L631 254L617 249V275L603 297L609 355L747 439L767 445L808 459L834 496L853 558V586L834 656L853 695L865 736L859 788L916 897L933 964L939 1045L970 1160L990 1177L1026 1212L1037 1245L1056 1282L1050 1289H1037L1010 1255L1020 1295L1037 1332L1043 1388L1037 1396H1026L1020 1370L1010 1345L996 1308L990 1317L996 1345L1004 1401L996 1409L985 1401L977 1357L964 1317H957V1345L964 1401L957 1409H946L933 1357V1317H922V1388L916 1396L907 1388V1308L900 1295L893 1245L900 1193L893 1177L845 1061L819 1019L793 974L782 939L777 897V854L747 777L739 727V682L729 760L701 818V842L716 911V954L739 1076L754 1171L769 1289V1401L754 1478L734 1549L725 1595V1655L747 1716L754 1798L747 1868L718 2013L708 2124V2159L702 2187L713 2203L767 2298V2335L722 2359H708L679 2366L668 2373H643L629 2359L619 2317V2298L629 2276V2243L622 2216V2203V2177L629 2142V2117L611 1942L596 1893L589 1868L584 1848L589 1798V1767L611 1700L596 1667L584 1636L579 1588V1576L584 1520L572 1436L563 1382L544 1282V1224V1170L521 1163L528 1255L521 1317L506 1375V1409L482 1507L488 1588L482 1636L459 1693V1708L482 1777V1840L476 1873L459 1911L450 1965L432 2124L450 2148V2187V2225L432 2243V2285L441 2302V2317L426 2335V2359L412 2366L391 2373L370 2359L354 2366L298 2329V2302L314 2270L349 2225L365 2177H360V2148V2117V2085L354 2052L314 1848L309 1808V1777L320 1716L341 1645V1588L336 1561L326 1534L300 1444L295 1396L300 1271L314 1188L319 1149L326 1110L357 947V921L371 854V830L352 783L340 722L334 687V736L300 854L290 939L273 980L239 1032L198 1127L179 1170L185 1212V1247L179 1296L185 1332V1375L174 1382L169 1375V1325L164 1296L156 1301V1349L145 1393L140 1396H133L128 1393L133 1349V1301H122L113 1358L108 1396L104 1407L97 1412L87 1407V1399L92 1382L97 1349V1332L104 1301L97 1296L92 1301L73 1365L67 1393H60H48V1387L56 1365V1340L67 1311L73 1285V1254L67 1247L56 1276L35 1290L29 1279L48 1228V1219L60 1198L79 1178L97 1163L113 1139L133 1049V1014L140 952L156 893L213 791L208 749L213 708L233 656L227 641L213 596V568L220 516L239 482L261 459L286 452L300 439L412 384L440 369L452 360L460 355Z" fill="url(#pattern0)"/>
<path d="M460 297V355L452 360L440 369L412 384L300 439L286 452L261 459L239 482L220 516L213 568V596L227 641L233 656L213 708L208 749L213 791L156 893L140 952L133 1014V1049L113 1139L97 1163L79 1178L60 1198L48 1219V1228L29 1279L35 1290L56 1276L67 1247L73 1254V1285L67 1311L56 1340V1365L48 1387V1393H60H67L73 1365L92 1301L97 1296L104 1301L97 1332V1349L92 1382L87 1399V1407L97 1412L104 1407L108 1396L113 1358L122 1301H133V1349L128 1393L133 1396H140L145 1393L156 1349V1301L164 1296L169 1325V1375L174 1382L185 1375V1332L179 1296L185 1247V1212L179 1170L198 1127L239 1032L273 980L290 939L300 854L334 736V687L340 722L352 783L371 830V854L357 921V947L326 1110L319 1149L314 1188L300 1271L295 1396L300 1444L326 1534L336 1561L341 1588V1645L320 1716L309 1777V1808L314 1848L354 2052L360 2085V2117V2148V2177H365L349 2225L314 2270L298 2302V2329L354 2366L370 2359L391 2373L412 2366L426 2359V2335L441 2317V2302L432 2285V2243L450 2225V2187V2148L432 2124L450 1965L459 1911L476 1873L482 1840V1777L459 1708V1693L482 1636L488 1588L482 1507L506 1409V1375L521 1317L528 1255L521 1163L544 1170V1224V1282L563 1382L572 1436L584 1520L579 1576V1588L584 1636L596 1667L611 1700L589 1767V1798L584 1848L589 1868L596 1893L611 1942L629 2117V2142L622 2177V2203V2216L629 2243V2276L619 2298V2317L629 2359L643 2373H668L679 2366L708 2359H722L767 2335V2298L713 2203L702 2187L708 2159V2124L718 2013L747 1868L754 1798L747 1716L725 1655V1595L734 1549L754 1478L769 1401V1289L754 1171L739 1076L716 954V911L701 842V818L729 760L739 682V727L747 777L777 854V897L782 939L793 974L819 1019L845 1061L893 1177L900 1193L893 1245L900 1295L907 1308V1388L916 1396L922 1388V1317H933V1357L946 1409H957L964 1401L957 1345V1317H964L977 1357L985 1401L996 1409L1004 1401L996 1345L990 1317L996 1308L1010 1345L1020 1370L1026 1396H1037L1043 1388L1037 1332L1020 1295L1010 1255L1037 1289H1050L1056 1282L1037 1245L1026 1212L990 1177L970 1160L939 1045L933 964L916 897L859 788L865 736L853 695L834 656L853 586V558L834 496L808 459L767 445L747 439L609 355L603 297L617 275V249L631 254L652 222V176H639L631 189V138V104L617 71L578 38L532 29L497 38L466 56L440 88L433 127L440 171V198L428 176L417 181V209L423 231L440 254H452V236V285L460 297Z" stroke="#CCCCCC"/>
</g>
<path class="can_interact" id="left_ear" d="M624.4 196.441L633.519 183.673C633.834 183.233 634.262 182.885 634.758 182.668L645.798 177.839C647.78 176.971 650 178.424 650 180.587V183V197V204V222.223C650 222.732 649.87 223.234 649.622 223.68L645 232L631.288 251.197C630.522 252.269 629.147 252.716 627.898 252.299L620.051 249.684C618.826 249.275 618 248.129 618 246.838V232.255C618 232.085 618.014 231.916 618.043 231.748L623.884 197.677C623.96 197.232 624.137 196.809 624.4 196.441Z" fill="#DF977D" fill-opacity="0.3" stroke="#CCCCCC"/>
<path class="can_interact" id="right_ear" d="M417.6 185.2L420.355 181.526C421.625 179.833 424.201 179.952 425.31 181.754L430.656 190.441C430.883 190.809 431.186 191.124 431.547 191.364L441.986 198.324C442.636 198.757 443.092 199.428 443.255 200.192L448.933 226.689C448.978 226.896 449 227.107 449 227.318V240V249C449 250.657 447.657 252 446 252H438.854C437.718 252 436.679 251.358 436.171 250.342L431 240L423.27 227.439C423.091 227.149 422.963 226.829 422.892 226.496L417.067 199.311C417.022 199.104 417 198.893 417 198.682V187C417 186.351 417.211 185.719 417.6 185.2Z" fill="#DF977D" fill-opacity="0.3" stroke="#CCCCCC"/>
<path class="can_interact" id="mouth" d="M488 263.094V283.233C488 284.796 489.2 286.097 490.758 286.224L524.508 288.96C524.834 288.987 525.162 288.96 525.478 288.88L536.272 286.182C536.75 286.062 537.25 286.062 537.728 286.182L548.464 288.866C548.818 288.955 549.186 288.978 549.549 288.934L571.357 286.317C572.865 286.136 574 284.857 574 283.338V262.877C574 261.729 573.345 260.681 572.312 260.179L538.148 243.559C537.415 243.202 536.567 243.159 535.801 243.44L489.966 260.278C488.785 260.712 488 261.836 488 263.094Z" fill="#DF977D" fill-opacity="0.3" stroke="#CCCCCC"/>
<path class="can_interact" id="chin" d="M487 290V312.394C487 313.398 487.501 314.334 488.336 314.891L507.244 327.496C507.737 327.825 508.316 328 508.908 328H518H555.969C556.637 328 557.286 327.777 557.813 327.366L583.749 307.145C585.197 306.016 585.3 303.864 583.968 302.601L568.368 287.822C567.811 287.294 567.072 287 566.305 287H531H490C488.343 287 487 288.343 487 290Z" fill="#DF977D" fill-opacity="0.3" stroke="#CCCCCC"/>
<path class="can_interact" id="left_cheek" d="M616.056 271.457L624.584 189.494C624.792 187.5 623.023 185.867 621.052 186.234L550.679 199.316C548.791 199.667 547.714 201.676 548.467 203.442L572.76 260.436C572.918 260.808 573 261.208 573 261.613V288.959C573 289.633 573.227 290.288 573.645 290.817L585.91 306.352C587.022 307.762 589.116 307.884 590.386 306.614L606.656 290.344C606.884 290.116 607.074 289.853 607.218 289.565L615.756 272.488C615.917 272.165 616.019 271.816 616.056 271.457Z" fill="#DF977D" fill-opacity="0.3" stroke="#CCCCCC"/>
<path class="can_interact" id="right_cheek" d="M453.895 284.227L441.031 189.416C440.764 187.449 442.448 185.769 444.415 186.041L512.934 195.507C514.79 195.764 515.959 197.64 515.372 199.419L500.733 243.794C500.58 244.258 500.316 244.677 499.965 245.015L487.919 256.615C487.332 257.18 487 257.961 487 258.776V285V290V309.901C487 312.189 484.543 313.635 482.543 312.524L469.559 305.311C469.191 305.106 468.869 304.826 468.616 304.488L454.468 285.624C454.161 285.215 453.964 284.734 453.895 284.227Z" fill="#DF977D" fill-opacity="0.3" stroke="#CCCCCC"/>
<path class="can_interact" id="neck" d="M485 317L460 296V362L430 414L388 450L498 461L533 469L578 461L687 450L631 406L610 362L605 296L559 327L545 332H514L485 317Z" fill="#DF977D" fill-opacity="0.3" stroke="#CCCCCC"/>
<path class="can_interact" id="right_sholder" d="M261 461L284 452L306 437L402 387.5L462.5 356L431 410L390 447L373 472L359 491L341 514L321 536L297 577L261 621.5L233 659V654L225 634L217 602L212 588V577L217 536L225 508L242 478L261 461Z" fill="#DF977D" fill-opacity="0.3" stroke="#CCCCCC"/>
<path class="can_interact" id="left_shoulder" d="M703 484L693 459L632 403L614 359L726 423L748 437L783 452L805 459L818 474L835 495L847 539L853 558V593L847 613L827 673L765 558L748 539L703 484Z" fill="#DF977D" fill-opacity="0.3" stroke="#CCCCCC"/>
<path class="can_interact" id="abdomen" d="M370 829L357 794L525 715H548L719 782L700 818V842L707 875L713 902L674 917L632 930H574H548H513.5H443L427 925L357 902L370 858V829Z" fill="#DF977D" fill-opacity="0.3" stroke="#CCCCCC"/>
<path class="can_interact" id="right_upper_arm" d="M270 605.5L234 660L217 704L212 726V756V790L228 889L300 849L314 799L334 735V693L325 593L314 546.5L270 605.5Z" fill="#DF977D" fill-opacity="0.3" stroke="#CCCCCC"/>
<path class="can_interact" id="left_upper_arm" d="M780 854L844 872.5L854 795L862 740L854 698L828.5 676L796.5 621.5L761.5 558L746 543.5V605L739 676V718L746 767L780 854Z" fill="#DF977D" fill-opacity="0.3" stroke="#CCCCCC"/>
<path class="can_interact" id="right_lower_arm" d="M153 901L210 800L217 869L227 891L247 884L271 860L298 852V869L287 949L279 963L265 991L238 1036L176.5 1171.5L100 1157L133 1048V1025L139 963L153 901Z" fill="#DF977D" fill-opacity="0.3" stroke="#CCCCCC"/>
<path class="can_interact" id="left_lower_arm" d="M839.541 873.426L781.331 852.882C778.729 851.963 776 853.894 776 856.654V895.679C776 895.893 776.017 896.106 776.051 896.316L781 927L789.882 965.49C789.96 965.829 790.082 966.155 790.245 966.462L799 983L835 1042L844 1059L900.103 1192.18C900.897 1194.07 902.986 1195.05 904.945 1194.46L927.597 1187.62C927.865 1187.54 928.124 1187.43 928.369 1187.3L948 1176.5L959.616 1171.85C960.197 1171.62 960.716 1171.26 961.13 1170.79L966.593 1164.59C967.473 1163.6 967.8 1162.23 967.465 1160.94L935.129 1036.49C935.043 1036.17 935 1035.83 935 1035.49V994V966.56C935 966.189 934.948 965.819 934.846 965.461L915.112 896.393C915.038 896.132 914.936 895.879 914.81 895.637L864.461 799.434C862.689 796.049 857.633 796.837 856.976 800.602L844.813 870.341C844.387 872.779 841.874 874.25 839.541 873.426Z" fill="#DF977D" fill-opacity="0.3" stroke="#CCCCCC"/>
<path class="can_interact" id="right_palm" d="M111 1161L95 1166L53 1210V1217L74 1249V1277H85L176 1283L184 1217L176 1174L111 1161Z" fill="#DF977D" fill-opacity="0.3" stroke="#CCCCCC"/>
<path class="can_interact" id="right_thumb" d="M69 1243L50 1219L44 1243L26 1280L39 1287L57 1275L69 1243Z" fill="#DF977D" fill-opacity="0.3" stroke="#CCCCCC"/>
<path class="can_interact" id="left_pulm" d="M944 1178L899 1195L891 1250L905 1301H968L1016 1292L1004 1240L1016 1209L994 1186L968 1162L944 1178Z" fill="#DF977D" fill-opacity="0.3" stroke="#CCCCCC"/>
<path class="can_interact" id="left_thumb" d="M1035 1291L1009 1253L1003 1239L1017.5 1203.5L1026 1214L1035 1245L1057 1282L1052 1291H1035Z" fill="#DF977D" fill-opacity="0.3" stroke="#CCCCCC"/>
<path class="can_interact" id="right_finger_1" d="M93.6065 1281H75.3041C73.3862 1281 71.7382 1282.36 71.376 1284.24L67.056 1306.71C67.0187 1306.9 66.9672 1307.09 66.9018 1307.28L54.2262 1343.36C54.0765 1343.78 54 1344.23 54 1344.68V1363.6C54 1363.87 53.974 1364.13 53.9223 1364.39L49.3751 1387.12C49.1379 1388.31 49.4502 1389.54 50.2246 1390.47L52.8006 1393.56C53.5606 1394.47 54.6864 1395 55.8735 1395H63.7208C65.6275 1395 67.2692 1393.65 67.6431 1391.78L72 1370L97.4342 1286.16C98.2136 1283.59 96.2911 1281 93.6065 1281Z" fill="#DF977D" fill-opacity="0.3" stroke="#CCCCCC"/>
<path class="can_interact" id="right_finger_2" d="M87.2932 1398.33L106.42 1289.31C106.755 1287.4 108.417 1286 110.359 1286H121.278C123.75 1286 125.63 1288.22 125.224 1290.66L107.099 1399.41C107.033 1399.8 106.909 1400.18 106.731 1400.54L103.702 1406.6C103.251 1407.5 102.475 1408.2 101.529 1408.55L97.8495 1409.93C96.1658 1410.56 94.2677 1409.99 93.21 1408.54L87.9981 1401.37C87.3602 1400.5 87.1058 1399.4 87.2932 1398.33Z" fill="#DF977D" fill-opacity="0.3" stroke="#CCCCCC"/>
<path class="can_interact" id="right_finger_3" d="M151 1290H138.72C136.623 1290 134.882 1291.62 134.73 1293.71L131 1345L126.043 1378.71C126.014 1378.9 126 1379.1 126 1379.29V1394C126 1396.21 127.791 1398 130 1398H135H139.861C141.704 1398 143.308 1396.74 143.747 1394.95L154.885 1349.47C154.961 1349.16 155 1348.84 155 1348.52V1294C155 1291.79 153.209 1290 151 1290Z" fill="#DF977D" fill-opacity="0.3" stroke="#CCCCCC"/>
<path class="can_interact" id="right_finger_4" d="M175.611 1298H167.612C165.178 1298 163.308 1300.16 163.652 1302.57L166.96 1325.72C166.987 1325.91 167 1326.09 167 1326.28V1340V1372C167 1373.26 167.593 1374.44 168.6 1375.2L176.658 1381.24C178.052 1382.29 179.964 1382.31 181.383 1381.3L184.325 1379.2C185.376 1378.45 186 1377.23 186 1375.94V1340.33C186 1340.11 185.982 1339.89 185.946 1339.67L179.557 1301.34C179.236 1299.41 177.567 1298 175.611 1298Z" fill="#DF977D" fill-opacity="0.3" stroke="#CCCCCC"/>
<path class="can_interact" id="left_finger_4" d="M919.483 1305H909C906.791 1305 905 1306.79 905 1309V1346V1386.29C905 1387.93 905.996 1389.4 907.514 1390.01L912.551 1392.02C914.037 1392.61 915.734 1392.27 916.865 1391.13L917.828 1390.17C918.579 1389.42 919 1388.4 919 1387.34V1378V1346L923.453 1309.48C923.744 1307.1 921.884 1305 919.483 1305Z" fill="#DF977D" fill-opacity="0.3" stroke="#CCCCCC"/>
<path class="can_interact" id="left_finger_3" d="M934 1357.52V1313.25C934 1311.35 935.325 1309.72 937.176 1309.33L948.698 1306.91C951.005 1306.42 953.23 1308.03 953.496 1310.37L958 1350V1370.58C958 1370.86 958.03 1371.14 958.089 1371.41L963.618 1397.22C963.861 1398.35 963.601 1399.53 962.907 1400.46L959.2 1405.4C958.445 1406.41 957.259 1407 956 1407H951.217C949.838 1407 948.556 1406.29 947.825 1405.12L944.341 1399.55C944.115 1399.18 943.948 1398.79 943.847 1398.37L934.114 1358.47C934.038 1358.16 934 1357.84 934 1357.52Z" fill="#DF977D" fill-opacity="0.3" stroke="#CCCCCC"/>
<path class="can_interact" id="left_finger_2" d="M976 1354L966.154 1319.54C966.052 1319.18 966 1318.81 966 1318.44V1303C966 1300.79 967.791 1299 970 1299H982.844C984.695 1299 986.304 1300.27 986.734 1302.07L996.89 1344.54C996.963 1344.85 997 1345.16 997 1345.47V1354L1002.48 1398.79C1002.76 1401.03 1001.01 1403 998.758 1403C997.644 1403 996.588 1403.49 995.874 1404.35L994.804 1405.64C993.298 1407.44 990.566 1407.57 988.903 1405.9L986.85 1403.85C986.296 1403.3 985.916 1402.59 985.76 1401.82L976 1354Z" fill="#DF977D" fill-opacity="0.3" stroke="#CCCCCC"/>
<path class="can_interact" id="left_finger_1" d="M1011 1345L995.454 1303.85C994.657 1301.74 995.758 1299.39 997.887 1298.65L1016.39 1292.25C1018.41 1291.55 1020.62 1292.56 1021.42 1294.54L1035.8 1330.5C1035.93 1330.83 1036.02 1331.18 1036.06 1331.54L1041.83 1383.43C1041.94 1384.44 1041.66 1385.45 1041.05 1386.27L1036.47 1392.38C1036.16 1392.78 1036 1393.27 1036 1393.78C1036 1395.62 1033.98 1396.74 1032.42 1395.76L1029.28 1393.8C1028.46 1393.29 1027.85 1392.48 1027.57 1391.55L1020 1366L1011 1345Z" fill="#DF977D" fill-opacity="0.3" stroke="#CCCCCC"/>
<path class="can_interact" id="right_thigh" d="M374.835 990.237L359.468 965.723C357.53 962.631 352.802 963.537 352.145 967.127L330 1088L320 1142L314 1196L295.069 1296.63C295.023 1296.88 295 1297.12 295 1297.37V1353V1387L302 1443L314 1494L324.871 1528.59C324.957 1528.86 325.072 1529.13 325.214 1529.37L336.671 1549.42C336.889 1549.81 337.168 1550.15 337.497 1550.44L353.682 1564.72C353.893 1564.91 354.085 1565.11 354.252 1565.34L370.601 1587.46C370.865 1587.82 371.187 1588.13 371.554 1588.38L468.879 1655.17C470.992 1656.62 473.904 1655.74 474.856 1653.36L480.79 1638.52C480.929 1638.18 481.019 1637.81 481.056 1637.44L485.968 1588.32C485.989 1588.11 485.994 1587.89 485.981 1587.68L481.037 1505.61C481.012 1505.21 481.049 1504.8 481.146 1504.41L503.883 1412.47C503.961 1412.16 504 1411.84 504 1411.51V1373.58C504 1373.2 504.056 1372.81 504.165 1372.44L519.887 1319.38C519.962 1319.13 520.012 1318.87 520.036 1318.61L525 1264V1196L520.155 1158.7C520.054 1157.92 519.725 1157.18 519.209 1156.59L375.204 990.735C375.068 990.578 374.945 990.412 374.835 990.237Z" fill="#DF977D" fill-opacity="0.3" stroke="#CCCCCC"/>
<path class="can_interact" id="left_thigh" d="M698.689 990.374L545.926 1173.89C545.328 1174.61 545 1175.51 545 1176.45V1215V1283.61C545 1283.87 545.026 1284.13 545.076 1284.39L567 1395L583.939 1521.54C583.979 1521.85 583.985 1522.15 583.956 1522.46L578.044 1583.54C578.015 1583.85 578.02 1584.15 578.061 1584.46L583.418 1624.64C583.73 1626.98 585.989 1628.54 588.288 1628L639.262 1616.17C639.75 1616.06 640.212 1615.85 640.624 1615.57L704 1572L733.097 1546.78C733.686 1546.27 734.113 1545.6 734.326 1544.85L753 1479L768.929 1395.37C768.976 1395.12 769 1394.87 769 1394.62V1362V1319V1289L758 1206L753 1175L748 1127L718.222 966.945C717.516 963.151 712.378 962.458 710.692 965.929L699.213 989.562C699.071 989.853 698.895 990.126 698.689 990.374Z" fill="#DF977D" fill-opacity="0.3" stroke="#CCCCCC"/>
<path class="can_interact" id="right_knee" d="M332.968 1552.3L339.935 1648.11C339.978 1648.7 339.891 1649.28 339.681 1649.83L326.83 1683.34C326.316 1684.67 326.558 1686.19 327.463 1687.3L357.8 1724.53C358.559 1725.46 359.698 1726 360.9 1726H364.221C364.736 1726 365.245 1726.1 365.722 1726.29L384.903 1734.06C385.619 1734.35 386.404 1734.42 387.162 1734.28L428.506 1726.29C429.468 1726.1 430.329 1725.57 430.924 1724.79L443 1709L454.555 1693.59C454.849 1693.2 455.069 1692.76 455.203 1692.29L466.569 1652.28C467.106 1650.39 466.192 1648.39 464.413 1647.56L430.347 1631.66C430.116 1631.55 429.896 1631.42 429.69 1631.28L410 1617L374.063 1593.37C373.69 1593.13 373.361 1592.82 373.089 1592.47L340.129 1549.58C337.71 1546.43 332.68 1548.35 332.968 1552.3Z" fill="#DF977D" fill-opacity="0.3" stroke="#CCCCCC"/>
<path class="can_interact" id="left_knee" d="M610 1625H585.851C583.037 1625 581.102 1627.83 582.124 1630.45L609.492 1700.7C609.821 1701.54 610.426 1702.25 611.21 1702.7L646.068 1722.96C646.678 1723.31 647.372 1723.5 648.078 1723.5H686.843C687.904 1723.5 688.921 1723.08 689.672 1722.33L709.585 1702.42C709.86 1702.14 710.094 1701.83 710.278 1701.48L716.698 1689.56C716.898 1689.19 717.038 1688.79 717.113 1688.37L725.937 1639.35C725.979 1639.12 726 1638.88 726 1638.64V1602.32C726 1602.11 726.018 1601.89 726.052 1601.68L733.022 1559.04C733.585 1555.6 729.773 1553.13 726.864 1555.06L688.874 1580.25C688.626 1580.42 688.396 1580.61 688.19 1580.83L668.506 1601.47C668.171 1601.82 667.776 1602.11 667.339 1602.32L620.82 1624.61C620.28 1624.87 619.689 1625 619.091 1625H610Z" fill="#DF977D" fill-opacity="0.3" stroke="#CCCCCC"/>
<path class="can_interact" id="right_leg" d="M312 1748L325.843 1691.76C326.672 1688.39 331.105 1687.61 333.044 1690.48L358.122 1727.7C358.686 1728.53 359.547 1729.13 360.53 1729.36L388.237 1735.82C388.741 1735.94 389.263 1735.96 389.774 1735.88L431.56 1729.23C432.49 1729.08 433.338 1728.61 433.955 1727.9L454.024 1704.74C456.133 1702.31 460.105 1703.24 460.918 1706.35L471 1745L479.859 1777.48C479.953 1777.83 480 1778.18 480 1778.54V1804V1844.68C480 1844.89 479.983 1845.11 479.949 1845.32L475.076 1875.53C475.026 1875.84 474.938 1876.15 474.814 1876.44L459.134 1913.68C459.045 1913.89 458.974 1914.11 458.923 1914.34L450 1953L443 2010L433.427 2132.53C433.216 2135.24 430.434 2136.95 427.925 2135.92L391.506 2121.03C389.992 2120.41 388.254 2120.77 387.117 2121.95L365.874 2143.9C363.374 2146.48 359 2144.71 359 2141.11V2138.55C359 2138.18 359.049 2137.82 359.146 2137.47L363.782 2120.78C363.926 2120.27 363.964 2119.73 363.894 2119.19L359 2082L312.076 1845.39C312.026 1845.13 312 1844.87 312 1844.61V1828L307.059 1786.5C307.02 1786.17 307.022 1785.83 307.065 1785.5L312 1748Z" fill="#DF977D" fill-opacity="0.3" stroke="#CCCCCC"/>
<path class="can_interact" id="left_leg" d="M592.104 1761.65L608.569 1705.85C609.3 1703.37 612.149 1702.23 614.39 1703.51L651.078 1724.47C651.682 1724.82 652.366 1725 653.062 1725H683.769C685.156 1725 686.444 1724.28 687.172 1723.1L723.111 1664.92C724.957 1661.93 729.482 1662.6 730.381 1665.99L745.915 1724.68C745.972 1724.89 746.01 1725.11 746.031 1725.33L751.968 1788.66C751.989 1788.89 751.991 1789.11 751.974 1789.34L746.022 1867.71C746.007 1867.9 745.979 1868.09 745.938 1868.28L714.095 2011.57C714.032 2011.86 714 2012.15 714 2012.44V2030L704.993 2134.29C704.754 2137.06 701.829 2138.75 699.31 2137.57L673.307 2125.38C672.775 2125.13 672.196 2125 671.609 2125H633.11C631.059 2125 629.341 2123.45 629.131 2121.41L610.045 1935.44C610.015 1935.15 609.953 1934.86 609.861 1934.58L600 1905L592.109 1883.3C592.036 1883.1 591.98 1882.9 591.94 1882.69L587.072 1857.37C587.024 1857.13 587 1856.87 587 1856.62V1844V1810L591.962 1762.37C591.987 1762.12 592.035 1761.88 592.104 1761.65Z" fill="#DF977D" fill-opacity="0.3" stroke="#CCCCCC"/>
<path class="can_interact" id="right_ankle" d="M382.268 2123.88L361.061 2146.85C360.379 2147.59 360 2148.56 360 2149.56V2175.88C360 2178.48 362.446 2180.39 364.97 2179.76L383.522 2175.12C383.84 2175.04 384.165 2175 384.492 2175H414.914C415.625 2175 416.323 2175.19 416.937 2175.55L438.977 2188.47C441.644 2190.03 445 2188.11 445 2185.02V2149.15C445 2148.4 444.789 2147.66 444.392 2147.03L440.775 2141.24C440.275 2140.44 439.507 2139.84 438.607 2139.55L386.431 2122.78C384.949 2122.3 383.324 2122.73 382.268 2123.88Z" fill="#DF977D" fill-opacity="0.3" stroke="#CCCCCC"/>
<path class="can_interact" id="left_ankle" d="M624.113 2163.54L631.347 2133.69C631.74 2132.07 633.096 2130.87 634.75 2130.66L671.884 2126.14C672.614 2126.05 673.354 2126.16 674.023 2126.47L703.655 2139.93C705.083 2140.58 706 2142.01 706 2143.58V2154V2178.7C706 2181.35 703.456 2183.27 700.901 2182.54L678.539 2176.15C678.181 2176.05 677.811 2176 677.44 2176H650.944C650.323 2176 649.711 2176.14 649.155 2176.42L629.789 2186.11C627.129 2187.44 624 2185.5 624 2182.53V2164.48C624 2164.16 624.038 2163.84 624.113 2163.54Z" fill="#DF977D" fill-opacity="0.3" stroke="#CCCCCC"/>
<path class="can_interact" id="right_foot" d="M403.672 2174.25L365.355 2181.55C363.905 2181.83 362.725 2182.88 362.285 2184.29L358 2198L346.199 2228.49C346.067 2228.83 345.889 2229.15 345.669 2229.44L310 2277L299.22 2295.62C299.074 2295.87 298.956 2296.14 298.868 2296.42L293.567 2313.2C293.208 2314.34 293.375 2315.58 294.023 2316.58L303.638 2331.44C303.878 2331.81 304.177 2332.14 304.525 2332.41L318 2343L344.933 2363.2C345.626 2363.72 346.468 2364 347.333 2364H355.942C357.233 2364 358.446 2363.38 359.196 2362.32L363 2357L368.799 2349.54C369.557 2348.57 370.722 2348 371.956 2348H375C377.209 2348 379 2349.79 379 2352V2355.55C379 2356.49 379.328 2357.39 379.927 2358.11L387.801 2367.56C388.561 2368.47 389.686 2369 390.873 2369H399H409.127C410.314 2369 411.439 2368.47 412.199 2367.56L420.759 2357.29C420.919 2357.1 421.061 2356.89 421.183 2356.67L425.497 2348.91C425.827 2348.31 426 2347.64 426 2346.96V2333.92C426 2332.71 426.552 2331.56 427.501 2330.8L434.499 2325.2C435.448 2324.44 436 2323.29 436 2322.08V2304.94C436 2304.32 435.855 2303.71 435.578 2303.16L427.077 2286.15C426.414 2284.83 426.539 2283.25 427.4 2282.04L430.255 2278.04C430.74 2277.36 431 2276.55 431 2275.72V2243.07C431 2241.77 431.631 2240.55 432.693 2239.8L446.307 2230.2C447.369 2229.45 448 2228.23 448 2226.93V2217.09C448 2216.37 447.81 2215.68 447.451 2215.06L431.6 2188.02C431.209 2187.36 430.631 2186.82 429.938 2186.47L406.209 2174.6C405.425 2174.21 404.533 2174.09 403.672 2174.25Z" fill="#DF977D" fill-opacity="0.3" stroke="#CCCCCC"/>
<path class="can_interact" id="left_foot" d="M657.923 2176.48L625.375 2190.94C623.931 2191.59 623 2193.02 623 2194.6V2211.61C623 2211.87 623.025 2212.13 623.074 2212.38L629.926 2247.62C629.975 2247.87 630 2248.13 630 2248.39V2275.99C630 2276.65 629.834 2277.31 629.517 2277.89L617.483 2300.11C617.166 2300.69 617 2301.35 617 2302.01V2317.27C617 2317.75 617.086 2318.23 617.255 2318.68L622.745 2333.32C622.914 2333.77 623 2334.25 623 2334.73V2354.59C623 2356.07 623.819 2357.43 625.128 2358.13L639.679 2365.83C639.893 2365.94 640.116 2366.04 640.346 2366.11L657.147 2371.41C658.317 2371.78 659.592 2371.6 660.605 2370.91L678.949 2358.4C680.205 2357.54 681.838 2357.47 683.163 2358.22L694.901 2364.82C696.193 2365.55 697.779 2365.5 699.025 2364.7L710.012 2357.64C710.657 2357.22 711.408 2357 712.175 2357H721.758C722.567 2357 723.357 2356.75 724.024 2356.3L737.976 2346.7C738.643 2346.25 739.433 2346 740.242 2346H743.628C744.517 2346 745.381 2345.7 746.083 2345.16L753.687 2339.24C753.895 2339.08 754.119 2338.94 754.354 2338.82L761.789 2335.11C763.144 2334.43 764 2333.04 764 2331.53V2295.12C764 2294.39 763.798 2293.67 763.416 2293.04L711.223 2207.37C711.075 2207.12 710.953 2206.86 710.86 2206.59L702.932 2183.69C702.374 2182.08 700.857 2181 699.152 2181H691.311C691.104 2181 690.897 2180.98 690.693 2180.95L660.165 2176.18C659.404 2176.06 658.626 2176.17 657.923 2176.48Z" fill="#DF977D" fill-opacity="0.3" stroke="#CCCCCC"/>
<path class="can_interact" id="right_foot_thumb" d="M428.292 2291H397C394.791 2291 393 2292.79 393 2295V2333.27C393 2334.37 392.542 2335.43 391.736 2336.19L379.045 2348.08C377.817 2349.23 377.441 2351.03 378.104 2352.58L382.551 2362.95C382.844 2363.64 383.323 2364.23 383.934 2364.65L391.967 2370.28C392.639 2370.75 393.44 2371 394.261 2371H404.789C405.579 2371 406.351 2370.77 407.008 2370.33L422.219 2360.19C423.332 2359.45 424 2358.2 424 2356.86V2350V2336.75C424 2335.63 424.467 2334.57 425.287 2333.81L435.713 2324.19C436.533 2323.43 437 2322.37 437 2321.25V2306.77C437 2306.26 436.903 2305.76 436.714 2305.28L432.006 2293.51C431.398 2292 429.927 2291 428.292 2291Z" fill="#DF977D" fill-opacity="0.3" stroke="#CCCCCC"/>
<path class="can_interact" id="left_foot_thumb" d="M660.784 2286.36L631.938 2280.59C630.196 2280.24 628.434 2281.08 627.61 2282.65L618.457 2300.13C618.157 2300.7 618 2301.34 618 2301.98V2320.23C618 2320.74 618.097 2321.24 618.286 2321.72L624 2336L628.81 2355.24C628.935 2355.74 629.158 2356.22 629.464 2356.63L638.801 2369.37C639.555 2370.39 640.753 2371 642.027 2371H662.465C663.453 2371 664.406 2370.63 665.141 2369.97L672.676 2363.19C673.519 2362.43 674 2361.35 674 2360.22V2348.04C674 2347.36 673.827 2346.69 673.497 2346.09L664.503 2329.91C664.173 2329.31 664 2328.64 664 2327.96V2290.28C664 2288.37 662.654 2286.73 660.784 2286.36Z" fill="#DF977D" fill-opacity="0.3" stroke="#CCCCCC"/>
<path class="can_interact" id="right_toe_1" d="M381.823 2300H368.559C366.999 2300 365.581 2300.91 364.927 2302.32L360 2313L351 2342L344.322 2357.86C343.56 2359.67 344.224 2361.76 345.888 2362.81L349.402 2365C350.414 2365.63 351.655 2365.78 352.787 2365.4L364.57 2361.48C365.492 2361.17 366.27 2360.54 366.76 2359.7L372.768 2349.4C372.922 2349.13 373.046 2348.85 373.136 2348.56L381 2323L385.693 2305.01C386.354 2302.48 384.442 2300 381.823 2300Z" stroke="#CCCCCC"/>
<path class="can_interact" id="right_toe_2" d="M362.82 2297.61L352.867 2294.29C350.743 2293.58 348.452 2294.75 347.784 2296.89L344 2309L337.103 2333.63C337.035 2333.88 336.943 2334.11 336.829 2334.34L330.944 2346.11C329.898 2348.2 330.863 2350.75 333.036 2351.61L340.236 2354.49C342.307 2355.32 344.655 2354.3 345.455 2352.22L359 2317L365.211 2303.03C366.17 2300.87 365.061 2298.35 362.82 2297.61Z" fill="#DF977D" fill-opacity="0.3" stroke="#CCCCCC"/>
<path class="can_interact" id="right_toe_3" d="M346.527 2295.02L338.948 2290.68C337.248 2289.71 335.094 2290.12 333.859 2291.64L323.401 2304.51C323.135 2304.83 322.923 2305.2 322.772 2305.59L318.267 2317.31C318.09 2317.77 318 2318.25 318 2318.74V2332V2339C318 2341.21 319.791 2343 322 2343H327.877C329.712 2343 331.312 2341.75 331.757 2339.97L335.894 2323.43C335.964 2323.14 336.066 2322.87 336.196 2322.61L342 2311L348.015 2300.47C349.111 2298.55 348.445 2296.11 346.527 2295.02Z" fill="#DF977D" fill-opacity="0.3" stroke="#CCCCCC"/>
<path class="can_interact" id="right_toe_4" d="M330.037 2294.28L321.862 2288.66C319.835 2287.26 317.042 2288.01 315.985 2290.23L308 2307L302.862 2320.7C302.333 2322.11 302.641 2323.7 303.658 2324.81L308.768 2330.38C310.742 2332.54 314.285 2331.92 315.409 2329.22L318 2323L323.696 2307.81C323.896 2307.28 324.209 2306.79 324.613 2306.39L330.6 2300.4C332.368 2298.63 332.098 2295.69 330.037 2294.28Z" stroke="#CCCCCC"/>
<path class="can_interact" id="left_toe_1" d="M680.506 2299.25L673.353 2301.8C671.441 2302.49 670.344 2304.49 670.801 2306.47L679 2342L683.449 2358.02C683.795 2359.26 684.721 2360.26 685.936 2360.7L693.739 2363.54C694.557 2363.84 695.45 2363.86 696.282 2363.61L703.487 2361.39C705.849 2360.66 706.994 2357.99 705.888 2355.78L699.18 2342.36C699.06 2342.12 698.965 2341.87 698.895 2341.61L692.081 2316.3C692.027 2316.1 691.958 2315.9 691.874 2315.72L685.507 2301.39C684.657 2299.48 682.477 2298.54 680.506 2299.25Z" fill="#DF977D" fill-opacity="0.3" stroke="#CCCCCC"/>
<path class="can_interact" id="left_toe_2" d="M699.105 2293.7L690.259 2297.57C688.401 2298.39 687.445 2300.46 688.036 2302.4L694 2322L705.545 2356.64C705.839 2357.52 706.431 2358.27 707.22 2358.76L711.674 2361.55C713.076 2362.42 714.872 2362.35 716.194 2361.35L723.602 2355.8C725.023 2354.73 725.571 2352.86 724.948 2351.19L714 2322L704.464 2295.99C703.67 2293.83 701.217 2292.78 699.105 2293.7Z" fill="#DF977D" fill-opacity="0.3" stroke="#CCCCCC"/>
<path class="can_interact" id="left_toe_3" d="M716.528 2294H710.487C707.775 2294 705.849 2296.64 706.679 2299.22L714 2322L718.644 2346.15C718.869 2347.32 719.608 2348.33 720.656 2348.9L727.742 2352.77C729.117 2353.52 730.804 2353.4 732.058 2352.46L736.4 2349.2C737.407 2348.44 738 2347.26 738 2346V2339.68C738 2339.23 737.925 2338.78 737.778 2338.36L730 2316L720.106 2296.21C719.428 2294.86 718.043 2294 716.528 2294Z" fill="#DF977D" fill-opacity="0.3" stroke="#CCCCCC"/>
<path class="can_interact" id="left_toe_4" d="M734.395 2292.44L727.132 2295.35C724.924 2296.23 723.97 2298.83 725.082 2300.93L731.535 2313.12C731.84 2313.7 732 2314.34 732 2314.99V2321.49C732 2321.83 732.044 2322.17 732.13 2322.5L737.22 2342.01C737.679 2343.77 739.27 2345 741.09 2345H745.783C747.162 2345 748.444 2344.29 749.175 2343.12L752.138 2338.38C752.691 2337.5 752.876 2336.43 752.654 2335.41L748.084 2314.38C748.028 2314.13 747.947 2313.88 747.843 2313.64L739.548 2294.56C738.686 2292.58 736.403 2291.64 734.395 2292.44Z" fill="#DF977D" fill-opacity="0.3" stroke="#CCCCCC"/>
<path class="can_interact" id="forehead" d="M471.475 52.5856L446 81C432.654 98.4426 433.141 108.337 435 126V141.065C435 143.608 437.341 145.505 439.828 144.979L486.591 135.087C486.863 135.029 487.14 135 487.418 135H534H563.554C563.85 135 564.146 135.033 564.435 135.098L595 142L623.871 150.492C626.433 151.245 629 149.325 629 146.654V103.739C629 103.25 628.911 102.766 628.736 102.31L616.268 69.7C616.091 69.2373 615.824 68.8051 615.491 68.4385C598.334 49.5567 588.312 42.378 570 38C548.3 29.5353 535.808 28.8859 513.638 31.9123C513.219 31.9694 512.807 32.0944 512.427 32.2796L472.703 51.6572C472.239 51.8836 471.82 52.2012 471.475 52.5856Z" fill="#DF977D" fill-opacity="0.3" stroke="#CCCCCC"/>
<path class="can_interact" id="nose" d="M521 209.423V177C521 174.791 522.791 173 525 173H536C538.209 173 540 174.791 540 177V209.892C540 210.617 540.197 211.328 540.57 211.95L549 226L553.654 232.723C555.491 235.376 553.592 239 550.366 239H535H521.693C521.234 239 520.779 238.921 520.348 238.767L509.655 234.948C508.063 234.38 507 232.872 507 231.181V227.577C507 226.563 507.384 225.588 508.076 224.847L519.924 212.153C520.616 211.412 521 210.437 521 209.423Z" fill="#DF977D" fill-opacity="0.3" stroke="#CCCCCC"/>
<path class="can_interact" id="pelvis" d="M356 957.996V907.04C356 904.312 358.669 902.385 361.258 903.243L441.387 929.797C441.793 929.931 442.218 930 442.646 930H623.388C623.794 930 624.197 929.938 624.584 929.817L709.805 903.127C712.381 902.32 715 904.245 715 906.944V946.54C715 946.845 714.965 947.15 714.895 947.448L708.204 976.126C708.07 976.702 707.81 977.24 707.443 977.703L685 1006L624 1078L551.198 1164.08C550.438 1164.98 549.321 1165.5 548.144 1165.5H529.944C528.717 1165.5 527.557 1164.94 526.799 1163.97L500.5 1130.5L386.41 1015.41C386.138 1015.14 385.907 1014.83 385.725 1014.49L356.474 959.885C356.163 959.304 356 958.655 356 957.996Z" fill="#DF977D" fill-opacity="0.3" stroke="#CCCCCC"/>
<path class="can_interact" id="full_chest" d="M338 719L320 581V539.388C320 538.489 320.303 537.616 320.859 536.91L374.799 468.523C375.557 467.561 376.715 467 377.94 467H426H503.964C504.643 467 505.312 467.173 505.906 467.503L539.178 485.988C540.32 486.622 541.7 486.659 542.874 486.086L581.31 467.337C581.766 467.114 582.26 466.981 582.766 466.943L686.216 459.208C687.888 459.083 689.461 460.015 690.155 461.542L698.796 480.551C698.931 480.849 699.103 481.13 699.307 481.386L733.324 524.15C733.767 524.707 734.053 525.371 734.154 526.075L741.96 580.719C741.987 580.906 742 581.095 742 581.284V646L734 719L729.072 757.436C729.024 757.81 728.924 758.176 728.773 758.522L720.573 777.382C719.701 779.388 717.379 780.322 715.361 779.477L536.672 704.7C535.609 704.255 534.406 704.29 533.371 704.796L359.106 789.993C356.932 791.055 354.32 789.96 353.555 787.664L348 771L338 719Z" fill="#DF977D" fill-opacity="0.3" stroke="#CCCCCC"/>
<path class="can_interact" id="left_chest" d="M555 473L542 494L536 648L560 666L618 678L659 673L690 659L714 633L742 578V532L731 524L645 473L627 465H588L555 473Z" fill="#DF977D" fill-opacity="0.3" stroke="#CCCCCC"/>
<path class="can_interact" id="right_chest" d="M365.708 500.234L322.73 534.616C321.654 535.477 321.097 536.832 321.256 538.201L325.932 578.416C325.977 578.803 326.079 579.182 326.233 579.54L344.862 622.681C344.954 622.893 345.064 623.097 345.19 623.29L365.314 653.954C365.761 654.635 366.405 655.163 367.16 655.468L417.279 675.709C417.755 675.901 418.264 676 418.777 676H458.584C458.86 676 459.137 675.971 459.408 675.914L514.662 664.282C515.529 664.099 516.312 663.634 516.886 662.958L532.048 645.12C532.662 644.397 533 643.479 533 642.53V482.708C533 481.073 532.004 479.602 530.486 478.994L498.715 466.286C498.243 466.097 497.739 466 497.23 466H430.997C430.342 466 429.698 466.161 429.12 466.468L366.33 499.825C366.111 499.941 365.902 500.078 365.708 500.234Z" fill="#DF977D" fill-opacity="0.3" stroke="#CCCCCC"/>
<path class="can_interact" id="right_eye" d="M438.5 182.037V147.905C438.5 145.943 439.924 144.27 441.862 143.957L487.683 136.551C487.894 136.517 488.107 136.5 488.321 136.5H523.285C525.754 136.5 527.634 138.716 527.231 141.152L518.639 193.132C518.284 195.281 516.275 196.751 514.12 196.439L441.927 185.996C439.96 185.711 438.5 184.025 438.5 182.037Z" fill="#DF977D" fill-opacity="0.3" stroke="#CCCCCC"/>
<path class="can_interact" id="left_eye" d="M544.815 193.064L536.315 144.185C535.889 141.739 537.773 139.5 540.256 139.5H568.575C568.858 139.5 569.139 139.53 569.415 139.589L626.34 151.821C628.184 152.217 629.5 153.846 629.5 155.732V179.131C629.5 181.078 628.099 182.742 626.18 183.073L549.437 196.32C547.262 196.696 545.194 195.239 544.815 193.064Z" fill="#DF977D" fill-opacity="0.3" stroke="#CCCCCC"/>
</g>
<defs>
<pattern id="pattern0" patternContentUnits="objectBoundingBox" width="1" height="1">
<use xlink:href="#image0_10_2" transform="matrix(0.00146871 0 0 0.000643501 -0.000830222 0)"/>
</pattern>
<image id="image0_10_2" data-name="anatomy_skeleton.png" width="682" height="1554" xlink:href="/images/anatomy_front.png"/></defs> </svg>